<?xml version="1.0" encoding="UTF-8"?>
<svg width="55px" height="43px" viewBox="0 0 55 43" version="1.1" xmlns="http://www.w3.org/2000/svg" xmlns:xlink="http://www.w3.org/1999/xlink">
    <!-- Generator: Sketch 48.2 (47327) - http://www.bohemiancoding.com/sketch -->
    <title>Page 1</title>
    <desc>Created with Sketch.</desc>
    <defs></defs>
    <g id="speaker" stroke="none" stroke-width="1" fill="none" fill-rule="evenodd" transform="translate(-364.000000, -414.000000)">
        <path d="M418.288783,436.875918 C418.429591,436.59317 418.5,436.23974 418.5,435.815619 C418.5,435.391488 418.429591,434.943815 418.288783,434.472563 C418.147975,434.331189 418.042366,434.189815 417.971967,434.048441 C417.901558,433.907068 417.795958,433.742133 417.65515,433.553638 L399.631683,415.457788 C399.021508,414.892283 398.317475,414.609545 397.519549,414.609545 C396.721633,414.609545 396.0176,414.892283 395.407433,415.457788 C394.844191,416.070405 394.562583,416.777265 394.562583,417.578386 C394.562583,418.379516 394.844191,419.086377 395.407433,419.699002 L408.3618,432.705395 L367.527379,432.705395 C366.588652,432.705395 365.849416,432.976353 365.309648,433.518287 C364.76988,434.060222 364.5,434.778871 364.5,435.674236 C364.5,436.61674 364.76988,437.358942 365.309648,437.900876 C365.849416,438.442811 366.588652,438.713778 367.527379,438.713778 L408.3618,438.713778 L395.407433,451.649483 C394.844191,452.262106 394.562583,452.968968 394.562583,453.77009 C394.562583,454.571213 394.844191,455.278075 395.407433,455.890698 C395.735983,456.220572 396.099733,456.456192 396.498691,456.597567 C396.89765,456.738942 397.237933,456.809628 397.519549,456.809628 C397.848108,456.809628 398.211858,456.738942 398.610816,456.597567 C399.009775,456.456192 399.350058,456.220572 399.631683,455.890698 L417.65515,437.794852 C417.795958,437.65347 417.936758,437.512105 418.077566,437.370722 C418.218383,437.229348 418.288783,437.064413 418.288783,436.875918 Z" id="Page-1" fill="#8F23F5"></path>
    </g>
</svg>