<svg width="16" height="14" viewBox="0 0 16 14" version="1.1" xmlns="http://www.w3.org/2000/svg" xmlns:xlink="http://www.w3.org/1999/xlink">
<title>Page 1</title>
<desc>Created using Figma</desc>
<g id="Canvas" transform="translate(-52774 -10244)">
<g id="Page 1">
<use xlink:href="#path0_fill" transform="translate(52774 10244)" fill="#092CE3"/>
</g>
</g>
<defs>
<path id="path0_fill" fill-rule="evenodd" d="M 14.0146 1.26695C 13.6183 0.860268 13.1621 0.547446 12.646 0.328468C 12.1298 0.109488 11.585 0 11.0115 0C 10.4484 0 9.89573 0.109488 9.35349 0.328468C 8.81126 0.547446 8.34202 0.860268 7.94578 1.26695L 7.67988 1.53285L 7.41397 1.26695C 7.01772 0.860268 6.55631 0.547446 6.02972 0.328468C 5.50313 0.109488 4.94265 0 4.34828 0C 3.77476 0 3.22993 0.109488 2.71376 0.328468C 2.1976 0.547446 1.7414 0.860268 1.34515 1.26695C 0.938475 1.66319 0.612619 2.13243 0.36757 2.67466C 0.122522 3.21689 0 3.76955 0 4.33264C 0 4.89573 0.112095 5.44838 0.336288 5.99061C 0.560481 6.53285 0.870697 7.00208 1.26694 7.39833L 7.14807 13.2795C 7.21064 13.342 7.27841 13.3916 7.35141 13.428C 7.4244 13.4645 7.51303 13.4828 7.61731 13.4828C 7.71116 13.4828 7.79458 13.4645 7.86757 13.428C 7.94056 13.3916 8.01355 13.342 8.08655 13.2795L 13.952 7.39833C 14.4004 6.98123 14.7393 6.50678 14.9687 5.97497C 15.1981 5.44317 15.3128 4.89573 15.3128 4.33264C 15.3128 3.76955 15.2086 3.22211 15 2.6903C 14.781 2.1585 14.4526 1.68405 14.0146 1.26695ZM 13.0903 6.47509L 7.67844 11.8713L 2.26655 6.47509C 1.67218 5.87029 1.375 5.15601 1.375 4.33223C 1.375 3.50845 1.67218 2.79417 2.26655 2.18937C 2.53767 1.8974 2.85831 1.68103 3.22849 1.54026C 3.59867 1.39948 3.97145 1.3291 4.34685 1.3291C 4.74309 1.3291 5.12109 1.39948 5.48084 1.54026C 5.84059 1.68103 6.17166 1.8974 6.47406 2.18937L 7.2092 2.92451C 7.34476 3.06007 7.50117 3.12785 7.67844 3.12785C 7.85571 3.12785 8.01212 3.06007 8.14768 2.92451L 8.82026 2.18937C 9.11223 1.92868 9.4433 1.72013 9.81348 1.56372C 10.1837 1.40731 10.5825 1.3291 11.01 1.3291C 11.4167 1.3291 11.7999 1.40731 12.1597 1.56372C 12.5194 1.72013 12.8505 1.92868 13.1529 2.18937C 13.4136 2.49177 13.6221 2.82545 13.7785 3.19041C 13.935 3.55538 14.0132 3.93598 14.0132 4.33223C 14.0132 4.72848 13.9324 5.10908 13.7707 5.47404C 13.6091 5.83901 13.3823 6.17269 13.0903 6.47509Z"/>
</defs>
</svg>
