<svg width="11" height="19" viewBox="0 0 11 19" version="1.1" xmlns="http://www.w3.org/2000/svg" xmlns:xlink="http://www.w3.org/1999/xlink">
<title>Page 1</title>
<desc>Created using Figma</desc>
<g id="Canvas" transform="translate(-53651 -10247)">
<g id="Page 1">
<use xlink:href="#path0_fill" transform="translate(53651 10247)" fill="#8F23F5"/>
</g>
</g>
<defs>
<path id="path0_fill" fill-rule="evenodd" d="M 10.1179 5.17998C 10.3682 5.17998 10.5724 5.10242 10.7305 4.94729C 10.8886 4.79216 10.9677 4.5797 10.9677 4.30991L 10.9677 0.870076C 10.9677 0.600284 10.8886 0.387825 10.7305 0.232695C 10.5724 0.077565 10.3682 0 10.1179 0L 7.58844 0C 6.89019 0 6.23807 0.134894 5.63204 0.404686C 5.01285 0.67448 4.4727 1.04544 4.0116 1.51757C 3.55049 1.98971 3.1882 2.54277 2.92471 3.17678C 2.66122 3.79731 2.52948 4.46503 2.52948 5.17998L 2.52948 6.89989L 0.849747 6.89989C 0.586258 6.89989 0.378764 6.98083 0.227258 7.14271C 0.0757519 7.30458 0 7.51367 0 7.76997L 0 11.23C 0 11.4863 0.0757519 11.692 0.227258 11.8472C 0.378764 12.0023 0.586258 12.0799 0.849747 12.0799L 2.52948 12.0799L 2.52948 18.1299C 2.52948 18.3862 2.60523 18.5953 2.75674 18.7572C 2.90824 18.9191 3.11574 19 3.37923 19L 6.73869 19C 7.00218 19 7.20967 18.9191 7.36118 18.7572C 7.51268 18.5953 7.58844 18.3862 7.58844 18.1299L 7.58844 12.0799L 9.26817 12.0799C 9.47896 12.0799 9.6634 12.0192 9.82149 11.8978C 9.97959 11.7764 10.0784 11.6077 10.1179 11.3919L 10.9677 7.95208C 11.0072 7.81718 11.0105 7.68566 10.9775 7.55751C 10.9446 7.42936 10.882 7.29784 10.7898 7.16294C 10.7108 7.04153 10.612 6.96734 10.4934 6.94036C 10.3748 6.91338 10.2497 6.89989 10.1179 6.89989L 7.58844 6.89989L 7.58844 5.17998L 10.1179 5.17998ZM 6.73864 8.63985L 9.03098 8.63985L 8.59623 10.3598L 6.73864 10.3598C 6.48833 10.3598 6.28742 10.4373 6.13592 10.5925C 5.98441 10.7476 5.90866 10.9601 5.90866 11.2298L 5.90866 17.2597L 4.20917 17.2597L 4.20917 11.2298C 4.20917 10.9601 4.13341 10.7476 3.98191 10.5925C 3.8304 10.4373 3.62949 10.3598 3.37918 10.3598L 1.67969 10.3598L 1.67969 8.63985L 3.37918 8.63985C 3.62949 8.63985 3.8304 8.55892 3.98191 8.39704C 4.13341 8.23517 4.20917 8.02608 4.20917 7.76978L 4.20917 5.17979C 4.20917 4.23552 4.54182 3.42278 5.20713 2.74156C 5.87243 2.06033 6.66618 1.71973 7.58839 1.71973L 9.26812 1.71973L 9.26812 3.45988L 7.58839 3.45988C 7.12729 3.45988 6.73206 3.62849 6.4027 3.96573C 6.07334 4.30297 5.90866 4.70765 5.90866 5.17979L 5.90866 7.76978C 5.90866 8.02608 5.98441 8.23517 6.13592 8.39704C 6.28742 8.55892 6.48833 8.63985 6.73864 8.63985Z"/>
</defs>
</svg>
