<svg width="18" height="15" viewBox="0 0 18 15" version="1.1" xmlns="http://www.w3.org/2000/svg" xmlns:xlink="http://www.w3.org/1999/xlink">
<title>Page 1</title>
<desc>Created using Figma</desc>
<g id="Canvas" transform="translate(-53682 -10250)">
<g id="Page 1">
<use xlink:href="#path0_fill" transform="translate(53682 10250)" fill="#8F23F5"/>
</g>
</g>
<defs>
<path id="path0_fill" fill-rule="evenodd" d="M 17.6821 0.150391C 17.5651 0.0797607 17.4277 0.0444465 17.2698 0.0444465C 17.1119 0.0444465 16.9745 0.0797607 16.8576 0.150391C 16.6003 0.338733 16.3226 0.509416 16.0244 0.662446C 15.7262 0.815475 15.4309 0.944959 15.1385 1.0509C 14.7643 0.721301 14.3433 0.468219 13.8755 0.291648C 13.4194 0.103304 12.9516 0.00618972 12.4722 0.000304397C 11.9927 -0.00558092 11.5132 0.0738754 11.0337 0.238676C 10.566 0.391705 10.1391 0.638902 9.7532 0.980273C 9.26203 1.39227 8.88781 1.87195 8.63053 2.41933C 8.37325 2.9667 8.24461 3.54055 8.24461 4.14089C 7.70666 4.10558 7.18041 4.01141 6.66586 3.85838C 6.16299 3.69358 5.6806 3.48169 5.21866 3.22272C 4.75673 2.96375 4.32696 2.65181 3.92935 2.2869C 3.53173 1.92198 3.17505 1.50999 2.8593 1.0509C 2.78913 0.944959 2.6985 0.868445 2.5874 0.821358C 2.47631 0.774274 2.34475 0.75073 2.19272 0.75073C 2.04069 0.75073 1.91205 0.797817 1.8068 0.891987C 1.70155 0.986159 1.63138 1.0921 1.5963 1.20982C 1.54952 1.24513 1.40334 1.66007 1.15775 2.45464C 0.912169 3.24921 0.806919 4.18797 0.842003 5.27094C 0.865392 5.7418 0.935558 6.24208 1.0525 6.7718C 1.16945 7.28974 1.36241 7.81356 1.63138 8.34328C 1.90035 8.87299 2.26288 9.39093 2.71897 9.8971C 3.17505 10.4033 3.74808 10.8741 4.43806 11.3097C 3.87672 11.5686 3.28323 11.757 2.65757 11.8747C 2.03191 11.9924 1.40334 12.0513 0.771836 12.0513C 0.619807 12.0513 0.464857 12.1013 0.30698 12.2014C 0.149104 12.3014 0.0526255 12.428 0.0175419 12.581C -0.0175417 12.734 -1.87092e-07 12.8929 0.070167 13.0577C 0.140334 13.2225 0.245584 13.3402 0.385918 13.4109C 0.8537 13.6816 1.33317 13.9111 1.82434 14.0995C 2.30381 14.2996 2.78621 14.4673 3.27153 14.6027C 3.75686 14.7381 4.24509 14.8352 4.73626 14.8941C 5.21574 14.9647 5.68936 15 6.15714 15C 7.09271 15 8.00487 14.8823 8.89365 14.6469C 9.78244 14.4114 10.642 14.0524 11.4723 13.5698C 12.2792 13.1107 12.9926 12.5574 13.6124 11.91C 14.2322 11.2626 14.7555 10.5357 15.1824 9.72936C 15.6092 8.92302 15.9337 8.049 16.1559 7.10728C 16.3781 6.16557 16.4892 5.17678 16.4892 4.14089C 16.4892 4.07026 16.4892 4.00846 16.4892 3.95549C 16.4892 3.90252 16.4892 3.84072 16.4892 3.77009C 16.8634 3.35809 17.1763 2.91078 17.4277 2.42815C 17.6791 1.94552 17.8633 1.43936 17.9803 0.909645C 18.0153 0.756615 18.0037 0.612418 17.9452 0.477047C 17.8867 0.341676 17.799 0.23279 17.6821 0.150391ZM 15.1387 3.01086C 15.0568 3.09326 14.9984 3.1992 14.9633 3.32869C 14.9282 3.45817 14.9106 3.58177 14.9106 3.69949C 14.9457 3.77012 14.9662 3.84369 14.972 3.9202C 14.9779 3.99672 14.9808 4.07029 14.9808 4.14091C 14.9808 5.04732 14.8873 5.90662 14.7001 6.71885C 14.513 7.53108 14.2353 8.28444 13.8669 8.97896C 13.4985 9.67347 13.0512 10.2973 12.525 10.8506C 11.9987 11.4156 11.3965 11.8924 10.7182 12.2808C 10.1919 12.5869 9.64813 12.8341 9.08679 13.0224C 8.51376 13.2108 7.93196 13.3432 7.34139 13.4197C 6.75081 13.4962 6.14563 13.5109 5.52582 13.4639C 4.9177 13.4285 4.30375 13.3344 3.68394 13.1813C 4.17511 13.0401 4.64288 12.8665 5.08728 12.6605C 5.53167 12.4545 5.96436 12.2043 6.38537 11.91C 6.5257 11.8276 6.62218 11.7305 6.6748 11.6187C 6.72743 11.5069 6.75374 11.3744 6.75374 11.2214C 6.75374 11.0801 6.70696 10.9536 6.61341 10.8418C 6.51985 10.73 6.4146 10.6564 6.29766 10.6211C 5.22176 10.1384 4.3973 9.56164 3.82427 8.89067C 3.26293 8.2197 2.86825 7.53402 2.64021 6.83362C 2.41216 6.13322 2.31568 5.45343 2.35077 4.79423C 2.37416 4.13503 2.44432 3.57 2.56127 3.09915C 2.97058 3.51115 3.42081 3.87606 3.91198 4.19389C 4.40315 4.52349 4.92355 4.80011 5.4732 5.02377C 6.02284 5.24743 6.59001 5.41222 7.17474 5.51817C 7.77116 5.62411 8.37927 5.6712 8.99908 5.65943C 9.18619 5.65943 9.35869 5.57997 9.51656 5.42105C 9.67444 5.26214 9.75338 5.08851 9.75338 4.90017L 9.75338 4.14091C 9.75338 3.76423 9.82646 3.39932 9.97265 3.04618C 10.1188 2.69303 10.3439 2.38109 10.648 2.11035C 11.1743 1.62772 11.8058 1.41289 12.5425 1.46587C 13.2793 1.51884 13.8698 1.81018 14.3142 2.33989C 14.4312 2.45761 14.5569 2.53412 14.6914 2.56943C 14.8259 2.60475 14.9516 2.60475 15.0685 2.56943C 15.1387 2.53412 15.2235 2.50763 15.3229 2.48998C 15.4223 2.47232 15.5071 2.44584 15.5772 2.41052C 15.5071 2.52823 15.434 2.63123 15.358 2.71952C 15.2819 2.80781 15.2088 2.90492 15.1387 3.01086Z"/>
</defs>
</svg>
