<?xml version="1.0" encoding="UTF-8"?>
<svg width="19px" height="19px" viewBox="0 0 19 19" version="1.1" xmlns="http://www.w3.org/2000/svg" xmlns:xlink="http://www.w3.org/1999/xlink">
    <!-- Generator: Sketch 48.2 (47327) - http://www.bohemiancoding.com/sketch -->
    <title>Page 1</title>
    <desc>Created with Sketch.</desc>
    <defs></defs>
    <g id="coldfront-about" stroke="none" stroke-width="1" fill="none" fill-rule="evenodd" transform="translate(-1071.000000, -4296.000000)">
        <g id="footer" transform="translate(-4.000000, 4128.000000)" fill="#FFFFFF">
            <g id="email-input-normal" transform="translate(672.000000, 140.000000)">
                <g id="email-input">
                    <path d="M421.220029,28.6104907 C421.441012,28.771206 421.531413,28.9854892 421.491235,29.2533472 L418.919806,44.6819197 C418.886324,44.8761169 418.779181,45.0267853 418.598376,45.1339285 C418.504627,45.1875003 418.400833,45.2142857 418.286994,45.2142857 C418.213331,45.2142857 418.132975,45.1975447 418.045922,45.1640625 L413.495698,43.3058032 L411.064894,46.2689732 C410.944357,46.4229918 410.780299,46.5 410.572707,46.5 C410.485652,46.5 410.411994,46.4866073 410.351725,46.4598214 C410.224492,46.4129462 410.122374,46.3342639 410.045363,46.2237722 C409.968355,46.1132808 409.92985,45.991072 409.92985,45.8571428 L409.92985,42.3515625 L418.608422,31.7142847 L407.870698,41.005581 L403.903064,39.3783472 C403.655295,39.2845988 403.521368,39.1004475 403.501279,38.8258935 C403.487886,38.5580355 403.595027,38.3604923 403.822707,38.2332593 L420.536994,28.5904027 C420.637441,28.5301342 420.744581,28.5 420.858422,28.5 C420.992351,28.5 421.112886,28.5368302 421.220029,28.6104907 Z" id="Page-1"></path>
                </g>
            </g>
        </g>
    </g>
</svg>