<?xml version="1.0" encoding="UTF-8"?>
<svg width="2744px" height="4724px" viewBox="0 0 2744 4724" version="1.1" xmlns="http://www.w3.org/2000/svg" xmlns:xlink="http://www.w3.org/1999/xlink">
    <!-- Generator: Sketch 47.1 (45422) - http://www.bohemiancoding.com/sketch -->
    <title>pattern-bg</title>
    <desc>Created with Sketch.</desc>
    <defs></defs>
    <g id="Page-1" stroke="none" stroke-width="1" fill="none" fill-rule="evenodd" opacity="0.314254982">
        <g id="pattern-bg" transform="translate(1.000000, 1.000000)" stroke="#000000" stroke-width="2">
            <g id="Page-1" transform="translate(0.000000, 2761.000000)">
                <path d="M338.4181,686.6275 C386.4971,698.4495 396.2071,774.5425 440.9151,797.4175 C498.2241,826.7385 554.2241,827.7425 616.6381,825.3465 C669.7871,823.3065 699.3041,852.6005 745.3551,874.0365 C794.2291,896.7865 855.1841,887.4555 905.6441,911.9725 C948.9801,933.0285 994.7011,956.5125 1033.6301,984.8415 C1112.9361,1042.5515 1091.1141,1130.7175 1061.3301,1212.4855 C1034.3001,1286.6945 995.0681,1290.0915 926.4411,1311.9655 C872.8801,1329.0365 838.7941,1366.9295 833.4591,1424.0865 C826.1711,1502.1635 811.9041,1603.9435 710.0521,1561.1565 C611.3151,1519.6785 529.5991,1447.5115 432.4311,1402.9225 C377.2381,1377.5945 368.6641,1321.2195 373.1671,1266.5085 C375.2341,1241.3975 387.7921,1209.5855 384.7561,1184.8695 C380.4631,1149.9205 350.3391,1153.0745 323.8061,1135.3915 C261.2541,1093.7055 246.7671,1005.7595 242.1071,936.5405 C237.2591,864.5275 234.3661,762.5665 289.8121,707.7845 C309.3101,688.5205 325.0341,683.3425 338.4181,686.6275 Z" id="Stroke-1" style="mix-blend-mode: multiply;" stroke-linejoin="round"></path>
                <path d="M335.831,891.57 C367.898,867.505 448.569,900.904 479.783,908.238 C544.233,923.38 606.918,945.671 666.946,973.562 C687.571,983.144 715.264,988.704 733.517,1002.244 C782.327,1038.467 800.897,1106.849 809.347,1163.684 C816.882,1214.365 806.574,1270.395 770.322,1306.604 C729.476,1347.403 654.52,1351.54 615.192,1309.275 C551.01,1240.298 608.015,1108.583 538.842,1044.613 C514.214,1021.839 479.443,1014.473 446.418,1008.593 C401.864,1000.662 319.185,978.83 322.502,919.883 C323.262,906.387 328.153,897.332 335.831,891.57 Z" id="Stroke-3" style="mix-blend-mode: multiply;"></path>
                <path d="M596.5331,118.188 C585.7381,147.708 543.5451,160.836 526.8231,194.078 C485.7831,275.66 529.1871,371.743 610.4471,409.44 C700.6371,451.28 804.0341,441.506 898.5341,466.983 C984.8691,490.259 1051.1871,547.915 1100.3401,620.798 C1153.7511,699.993 1143.5771,764.984 1161.4511,848.968 C1169.8131,888.26 1188.6411,928.333 1218.6441,957.524 C1269.9661,1007.456 1354.6271,1009.439 1400.3721,1065.389 C1461.7951,1140.514 1412.9431,1271.552 1357.5651,1335.354 C1314.8101,1384.613 1261.2811,1432.695 1200.3621,1455.089 C1150.1511,1473.547 1107.0901,1497.201 1072.3761,1541.297 C1011.6751,1618.402 1051.6121,1679.236 1041.6441,1765.076 C1029.1541,1872.633 958.6701,1970.978 845.6631,1959.282 C685.7691,1942.732 553.9641,1830.33 470.9501,1696.817 C444.0761,1653.595 421.3191,1606.047 382.0501,1573.669 C344.7631,1542.926 296.6691,1529.298 253.7241,1507.134 C164.7611,1461.218 100.5551,1373.922 76.0291,1277.596 C62.9841,1226.361 64.1341,1177.153 71.3521,1125.292 C80.2981,1061.01 75.2401,996.623 81.5511,932.258 C89.7751,848.396 113.6951,725.822 69.6161,655.361 C33.0341,596.885 9.9961,553.366 2.4411,484.877 C-10.7369,365.412 30.1331,291.989 108.2841,203.268 C166.3481,137.35 252.5621,80.487 330.4071,39.904 C415.4451,-4.429 551.1431,-35.981 594.7461,81.825 C600.2411,96.673 600.1331,108.342 596.5331,118.188 Z" id="Stroke-5" style="mix-blend-mode: multiply;"></path>
            </g>
            <g id="Page-1" transform="translate(1105.000000, 0.000000)">
                <path d="M32.5197,307.842 C9.7447,367.148 -7.9463,424.293 3.6697,496.342 C14.2367,561.887 44.6747,623.962 89.3247,673.02 C136.8457,725.232 208.9557,743.165 273.2657,768.41 C373.9477,807.934 469.2387,861.162 555.6887,926.165 C603.4407,962.071 649.4587,1002.712 678.2557,1055.06 C707.0527,1107.408 716.2057,1173.624 689.2797,1226.961 C664.7957,1275.458 616.8807,1303.865 570.0627,1327.421 C523.4117,1350.894 465.8447,1408.624 444.5207,1456.391 C428.2997,1492.726 432.3877,1541.437 464.5477,1564.87 C487.4967,1581.592 518.4617,1581.876 544.1977,1593.873 C581.0567,1611.056 603.8037,1654.281 597.0927,1694.391 C590.3827,1734.5 554.8057,1767.968 514.3617,1772.218 C480.5827,1775.767 447.8497,1760.998 414.2927,1755.751 C356.8547,1746.769 294.9747,1768.176 257.2597,1812.418 C219.5447,1856.66 208.4357,1922.675 231.8727,1975.878 C255.3087,2029.08 313.1627,2065.804 371.1727,2061.975 C436.5597,2057.66 489.0657,2008.718 548.0347,2062.972 C578.6187,2091.111 597.2117,2130.235 627.1037,2159.107 C674.8017,2205.175 750.7977,2219.122 811.7457,2192.993 C870.9727,2167.602 910.9927,2110.541 935.8087,2051.07 C960.6237,1991.6 973.2917,1927.74 996.2177,1867.516 C1031.0157,1776.102 1103.6747,1707.184 1185.0507,1655.453 C1245.6197,1616.949 1319.7267,1566.667 1346.3967,1497.377 C1401.8127,1353.401 1326.0497,1221.204 1246.3687,1103.203 C1164.3937,981.803 1058.1827,876.641 935.1037,797.089 C856.3947,746.216 768.5467,703.27 712.7897,627.941 C639.4517,528.86 637.1807,394.995 649.4447,272.336 C656.0417,206.357 662.5557,130.056 615.3117,83.529 C591.2437,59.826 557.6047,49.151 525.3067,39.254 C418.3977,6.495 297.1487,-25.002 199.6557,29.752 C124.3187,72.063 90.0417,151.595 62.6447,229.205 C52.9367,256.704 42.2627,282.471 32.5197,307.842 Z" id="Stroke-1" style="mix-blend-mode: multiply;"></path>
                <path d="M766.1728,962.0908 C761.6248,969.1108 762.0378,979.4068 766.1998,987.0598 C784.8668,1021.3928 814.7068,1044.1458 828.9718,1084.1308 C844.7708,1128.4178 849.0698,1176.6268 844.4908,1223.2688 C836.9058,1300.5438 806.8358,1373.7808 772.8898,1443.6138 C738.9438,1513.4478 700.6558,1581.5028 674.7818,1654.7118 C661.0728,1693.5028 650.9478,1736.0908 663.0328,1775.4178 C675.1188,1814.7448 716.7338,1847.4548 756.3428,1836.3268 C781.6038,1829.2308 799.7568,1806.8178 811.1428,1783.1778 C822.5278,1759.5368 828.8588,1733.7048 840.4288,1710.1548 C891.4598,1606.2848 1031.3798,1567.7358 1077.3178,1461.5148 C1103.7388,1400.4208 1092.2908,1328.2478 1062.5748,1268.6868 C1003.9278,1151.1338 882.9138,1091.7908 814.3468,981.6398 C809.3898,973.6758 804.4488,965.3588 796.8998,959.7888 C789.3508,954.2188 778.3568,952.1108 770.6458,957.4538 C768.8178,958.7208 767.3338,960.2988 766.1728,962.0908 Z" id="Stroke-5" style="mix-blend-mode: multiply;"></path>
            </g>
            <g id="Page-1" transform="translate(835.000000, 2310.000000)">
                <path d="M610.9016,111.059 C588.7516,108.551 566.7826,105.528 545.0606,101.971 C415.5996,80.776 291.2346,-55.136 155.7006,25.111 C80.4216,69.683 41.3696,221.911 21.3236,297.654 C-8.2794,409.504 -23.8204,571.411 91.1296,643.819 C172.8836,695.315 282.8046,688.406 371.5006,725.213 C487.7546,773.457 528.8546,895.789 595.5006,992.031 C663.1346,1089.701 763.3316,1134.992 884.9376,1115.776 C1042.2646,1090.914 1104.5036,960.935 1187.3436,845.426 C1254.5716,751.686 1354.2626,672.02 1452.9096,613.627 C1588.4046,533.422 1790.5986,493.832 1871.6586,345.669 C2019.5646,75.323 1652.5906,51.434 1481.5356,51.434 C1331.8166,51.434 1194.0196,76.998 1047.3426,99.883 C906.0076,121.934 754.6296,127.335 610.9016,111.059 Z" id="Stroke-1" style="mix-blend-mode: multiply;"></path>
                <path d="M395.359,170.7214 C346.959,167.1894 295.571,180.7784 257.932,206.8854 C196.78,249.3004 182.891,325.5604 187.315,395.4334 C200.351,601.3414 347.702,572.5354 491.315,618.9924 C656.179,672.3234 677.012,927.6754 883.5,757.2134 C1038.049,629.6294 1150.925,489.9304 1327.728,387.2204 C1359.321,368.8674 1465.971,322.1464 1468.099,281.4254 C1471.517,216.0094 1347.211,183.7894 1301.508,179.2484 C1160.89,165.2754 1014.012,207.6594 885.28,261.2414 C812.448,291.5564 726.72,336.7684 645.568,319.3454 C598.078,309.1504 554.15,283.8484 520.001,249.5034 C477.721,206.9814 462.345,175.6094 395.359,170.7214 Z" id="Stroke-3" style="mix-blend-mode: multiply;"></path>
                <path d="M427.3152,339.4335 C380.4452,328.8685 330.1732,347.3135 348.9102,403.6185 C366.2562,455.7445 444.6942,446.7685 483.3152,459.0205 C555.4852,481.9135 633.7802,586.2175 707.3152,571.6185 C837.4972,545.7735 751.9432,418.8125 673.5352,389.1855 C585.5092,355.9235 525.2552,361.5105 427.3152,339.4335 Z" id="Stroke-5" style="mix-blend-mode: multiply;"></path>
            </g>
            <g id="Page-1" transform="translate(0.000000, 125.000000)">
                <path d="M338.4181,686.6275 C386.4971,698.4495 396.2071,774.5425 440.9151,797.4175 C498.2241,826.7385 554.2241,827.7425 616.6381,825.3465 C669.7871,823.3065 699.3041,852.6005 745.3551,874.0365 C794.2291,896.7865 855.1841,887.4555 905.6441,911.9725 C948.9801,933.0285 994.7011,956.5125 1033.6301,984.8415 C1112.9361,1042.5515 1091.1141,1130.7175 1061.3301,1212.4855 C1034.3001,1286.6945 995.0681,1290.0915 926.4411,1311.9655 C872.8801,1329.0365 838.7941,1366.9295 833.4591,1424.0865 C826.1711,1502.1635 811.9041,1603.9435 710.0521,1561.1565 C611.3151,1519.6785 529.5991,1447.5115 432.4311,1402.9225 C377.2381,1377.5945 368.6641,1321.2195 373.1671,1266.5085 C375.2341,1241.3975 387.7921,1209.5855 384.7561,1184.8695 C380.4631,1149.9205 350.3391,1153.0745 323.8061,1135.3915 C261.2541,1093.7055 246.7671,1005.7595 242.1071,936.5405 C237.2591,864.5275 234.3661,762.5665 289.8121,707.7845 C309.3101,688.5205 325.0341,683.3425 338.4181,686.6275 Z" id="Stroke-1" style="mix-blend-mode: multiply;" stroke-linejoin="round"></path>
                <path d="M335.831,891.57 C367.898,867.505 448.569,900.904 479.783,908.238 C544.233,923.38 606.918,945.671 666.946,973.562 C687.571,983.144 715.264,988.704 733.517,1002.244 C782.327,1038.467 800.897,1106.849 809.347,1163.684 C816.882,1214.365 806.574,1270.395 770.322,1306.604 C729.476,1347.403 654.52,1351.54 615.192,1309.275 C551.01,1240.298 608.015,1108.583 538.842,1044.613 C514.214,1021.839 479.443,1014.473 446.418,1008.593 C401.864,1000.662 319.185,978.83 322.502,919.883 C323.262,906.387 328.153,897.332 335.831,891.57 Z" id="Stroke-3" style="mix-blend-mode: multiply;"></path>
                <path d="M596.5331,118.188 C585.7381,147.708 543.5451,160.836 526.8231,194.078 C485.7831,275.66 529.1871,371.743 610.4471,409.44 C700.6371,451.28 804.0341,441.506 898.5341,466.983 C984.8691,490.259 1051.1871,547.915 1100.3401,620.798 C1153.7511,699.993 1143.5771,764.984 1161.4511,848.968 C1169.8131,888.26 1188.6411,928.333 1218.6441,957.524 C1269.9661,1007.456 1354.6271,1009.439 1400.3721,1065.389 C1461.7951,1140.514 1412.9431,1271.552 1357.5651,1335.354 C1314.8101,1384.613 1261.2811,1432.695 1200.3621,1455.089 C1150.1511,1473.547 1107.0901,1497.201 1072.3761,1541.297 C1011.6751,1618.402 1051.6121,1679.236 1041.6441,1765.076 C1029.1541,1872.633 958.6701,1970.978 845.6631,1959.282 C685.7691,1942.732 553.9641,1830.33 470.9501,1696.817 C444.0761,1653.595 421.3191,1606.047 382.0501,1573.669 C344.7631,1542.926 296.6691,1529.298 253.7241,1507.134 C164.7611,1461.218 100.5551,1373.922 76.0291,1277.596 C62.9841,1226.361 64.1341,1177.153 71.3521,1125.292 C80.2981,1061.01 75.2401,996.623 81.5511,932.258 C89.7751,848.396 113.6951,725.822 69.6161,655.361 C33.0341,596.885 9.9961,553.366 2.4411,484.877 C-10.7369,365.412 30.1331,291.989 108.2841,203.268 C166.3481,137.35 252.5621,80.487 330.4071,39.904 C415.4451,-4.429 551.1431,-35.981 594.7461,81.825 C600.2411,96.673 600.1331,108.342 596.5331,118.188 Z" id="Stroke-5" style="mix-blend-mode: multiply;"></path>
            </g>
        </g>
    </g>
</svg>