<?xml version="1.0" encoding="UTF-8"?>
<svg width="44px" height="37px" viewBox="0 0 44 37" version="1.1" xmlns="http://www.w3.org/2000/svg" xmlns:xlink="http://www.w3.org/1999/xlink">
    <!-- Generator: Sketch 48.2 (47327) - http://www.bohemiancoding.com/sketch -->
    <title>Page 1</title>
    <desc>Created with Sketch.</desc>
    <defs></defs>
    <g id="speaker" stroke="none" stroke-width="1" fill="none" fill-rule="evenodd" transform="translate(-378.000000, -362.000000)">
        <path d="M420.792807,362.361588 C420.509782,362.19177 420.177237,362.106863 419.795156,362.106863 C419.413074,362.106863 419.080529,362.19177 418.797504,362.361588 C418.174854,362.81442 417.502684,363.224796 416.780977,363.592727 C416.05927,363.960659 415.34465,364.271978 414.637093,364.526697 C413.731423,363.734234 412.712553,363.125745 411.580464,362.701213 C410.476676,362.248376 409.344604,362.014882 408.18421,362.000732 C407.023816,361.986582 405.863443,362.17762 404.703049,362.573851 C403.570961,362.941782 402.53794,363.536121 401.60397,364.356885 C400.41527,365.347466 399.509611,366.500763 398.886967,367.81682 C398.264316,369.132871 397.952991,370.512587 397.952991,371.956001 C396.65109,371.871094 395.377506,371.644681 394.132211,371.27675 C392.915211,370.880518 391.747758,370.371086 390.629819,369.748435 C389.511881,369.125791 388.471791,368.375789 387.509515,367.49842 C386.547234,366.62105 385.684031,365.630485 384.919868,364.526697 C384.750056,364.271978 384.530717,364.088015 384.261843,363.974803 C383.992974,363.861597 383.674579,363.804991 383.306648,363.804991 C382.938718,363.804991 382.627398,363.918203 382.372678,364.144616 C382.117958,364.371035 381.948146,364.625754 381.86324,364.908779 C381.750031,364.993685 381.396257,365.99132 380.80191,367.901726 C380.207563,369.812127 379.952846,372.069197 380.037753,374.673004 C380.094357,375.805098 380.264168,377.007926 380.547191,378.281527 C380.830214,379.526827 381.297194,380.786256 381.948146,382.059863 C382.599098,383.333463 383.476455,384.578742 384.580243,385.795742 C385.684031,387.012737 387.070822,388.144809 388.740654,389.191996 C387.382147,389.814641 385.945825,390.267473 384.431655,390.550498 C382.917486,390.833518 381.396262,390.975025 379.86794,390.975025 C379.500011,390.975025 379.125012,391.095312 378.742931,391.335881 C378.36085,391.57645 378.12736,391.880694 378.042454,392.248625 C377.957547,392.616551 378,392.998627 378.169813,393.394858 C378.339627,393.79109 378.594343,394.074108 378.93397,394.243922 C380.066061,394.894874 381.226436,395.44676 382.415131,395.899596 C383.575522,396.380734 384.742975,396.784035 385.917519,397.109512 C387.092064,397.434988 388.273661,397.668478 389.462356,397.809989 C390.62275,397.979802 391.768977,398.064708 392.901066,398.064708 C395.165248,398.064708 397.372792,397.78169 399.523762,397.215644 C401.674732,396.649599 403.754918,395.786393 405.764376,394.626001 C407.717233,393.522212 409.443644,392.192025 410.943669,390.635399 C412.443689,389.078779 413.710193,387.331137 414.743225,385.392436 C415.776256,383.453729 416.561633,381.352317 417.099377,379.088135 C417.637121,376.823958 417.90599,374.446602 417.90599,371.956001 C417.90599,371.786188 417.90599,371.637606 417.90599,371.510244 C417.90599,371.382887 417.90599,371.234299 417.90599,371.064487 C418.81166,370.073905 419.568737,368.998439 420.177231,367.838045 C420.785731,366.677651 421.231483,365.460673 421.514508,364.187072 C421.599414,363.819141 421.571114,363.472446 421.429601,363.14697 C421.288089,362.821495 421.075826,362.559701 420.792807,362.361588 Z M414.637093,369.238997 C414.438975,369.437116 414.297468,369.691835 414.212561,370.00316 C414.127655,370.31448 414.085199,370.611649 414.085199,370.894674 C414.170111,371.064487 414.219636,371.241375 414.233786,371.425337 C414.247937,371.609306 414.255012,371.786188 414.255012,371.956001 C414.255012,374.135277 414.028598,376.201313 413.575761,378.15417 C413.122929,380.107022 412.450758,381.918339 411.559239,383.588177 C410.667714,385.258009 409.585173,386.758007 408.311567,388.088208 C407.037966,389.446721 405.580424,390.592943 403.938892,391.526919 C402.665291,392.262775 401.349256,392.857116 399.990744,393.309952 C398.603936,393.762788 397.19592,394.081184 395.766657,394.265148 C394.337393,394.449113 392.872771,394.48449 391.372751,394.371281 C389.901032,394.286375 388.41519,394.05996 386.915165,393.692031 C388.103865,393.352404 389.235937,392.934951 390.311419,392.439663 C391.386907,391.94437 392.434078,391.342956 393.45296,390.635399 C393.792585,390.437286 394.026074,390.203798 394.153436,389.934923 C394.280793,389.666054 394.344474,389.347659 394.344474,388.979728 C394.344474,388.640102 394.231267,388.335858 394.004848,388.066983 C393.77843,387.798114 393.523716,387.621226 393.240691,387.53632 C390.636884,386.375926 388.641603,384.989135 387.25479,383.375908 C385.896283,381.762682 384.941099,380.114097 384.389205,378.430114 C383.837311,376.746127 383.603817,375.111697 383.688724,373.526771 C383.74533,371.941845 383.915142,370.583354 384.198162,369.451266 C385.188743,370.441847 386.278365,371.3192 387.467059,372.083363 C388.655753,372.875826 389.915188,373.540921 391.245395,374.078665 C392.575596,374.616404 393.948237,375.01263 395.36335,375.267354 C396.806764,375.522073 398.278461,375.63528 399.778481,375.606979 C400.231318,375.606979 400.648769,375.415942 401.030851,375.03386 C401.412932,374.651779 401.60397,374.234328 401.60397,373.78149 L401.60397,371.956001 C401.60397,371.050331 401.780852,370.172973 402.134633,369.323909 C402.488409,368.47484 403.033223,367.724839 403.769079,367.073888 C405.04268,365.913494 406.570978,365.396986 408.354023,365.524348 C410.137067,365.651705 411.566309,366.352176 412.641796,367.625782 C412.924816,367.908801 413.22906,368.092764 413.554536,368.177671 C413.880011,368.262577 414.184255,368.262577 414.46728,368.177671 C414.637093,368.092764 414.842281,368.029083 415.08285,367.986633 C415.323419,367.944177 415.528607,367.880501 415.698425,367.795595 C415.528607,368.078614 415.351725,368.326258 415.167756,368.538521 C414.983794,368.75079 414.806906,368.984278 414.637093,369.238997 Z" id="Page-1" fill="#8F23F5"></path>
    </g>
</svg>