<svg xmlns="http://www.w3.org/2000/svg" width="352" height="70" viewBox="0 0 352 70">
    <g fill="#FFF" fill-rule="nonzero">
        <path d="M234.536 60.627c4.532.106 8.92-1.662 12.208-4.917l6.052 6.815C248.799 66.813 243.256 70 234.64 70c-14.772 0-24.312-10.218-24.312-24.056-.12-6.404 2.257-12.583 6.59-17.121 4.331-4.538 10.245-7.045 16.383-6.945 14.668 0 22.983 11.644 22.257 27.793h-34.672c1.226 6.708 5.741 10.986 13.64 10.986l.01-.03zm10.558-18.656c-.943-6.265-4.515-10.878-11.699-10.878-6.664 0-11.312 3.934-12.509 10.878h24.208zM0 59.395l26.702-28.562H.632v-8.958h38.445v9.147L12.375 59.574h27.06v8.968H0zM70.951 60.627c4.532.106 8.92-1.662 12.208-4.917l6.052 6.815C85.214 66.813 79.67 70 71.055 70c-14.772 0-24.312-10.218-24.312-24.056-.121-6.404 2.257-12.583 6.59-17.121 4.331-4.538 10.245-7.045 16.383-6.945 14.668 0 22.983 11.644 22.257 27.793H57.3c1.225 6.708 5.74 10.986 13.64 10.986l.01-.03zm10.558-18.656c-.943-6.265-4.515-10.878-11.699-10.878-6.664 0-11.312 3.934-12.509 10.878h24.208zM151.9 44.462c0-14.785 10.656-24.089 22.383-24.089 5.7-.079 11.143 2.465 14.868 6.949V0h9.488v67.624h-9.488v-6.396c-3.656 4.671-9.158 7.362-14.953 7.313-11.386 0-22.298-9.354-22.298-24.079m37.782-.089c-.208-8.068-6.637-14.454-14.406-14.309-7.768.145-13.972 6.767-13.9 14.838.07 8.07 6.39 14.574 14.16 14.571 8.15 0 14.146-6.761 14.146-15.1M261.444 57.827l8.655-4.62c2.333 4.278 6.776 6.874 11.541 6.743 5.407 0 8.206-2.86 8.206-6.094 0-3.695-5.225-4.53-10.91-5.73-7.642-1.661-15.6-4.256-15.6-13.76 0-7.304 6.754-14.047 17.396-13.948 8.379 0 14.608 3.42 18.152 8.954l-8.025 4.531c-2.254-3.434-6.073-5.427-10.098-5.268-5.14 0-7.757 2.585-7.757 5.543 0 3.323 4.146 4.247 10.642 5.73 7.395 1.662 15.773 4.159 15.773 13.762 0 6.369-5.407 14.96-18.209 14.871-9.372 0-15.954-3.883-19.747-10.714M326.95 46.687l-7.654 8.458v11.938h-9.653V0h9.653v43.93l20.493-22.791h11.757L333.776 40.8 352 67.083h-10.927zM123.438 21.875c-11.535 0-21.197 7.505-21.197 19.946v26.72h9.886V43.058c0-7.505 4.297-11.993 11.641-11.993s10.992 4.488 10.992 11.993v25.485h9.838V41.82c0-12.44-9.702-19.946-21.198-19.946"/>
    </g>
</svg>
