<?xml version="1.0" encoding="UTF-8"?>
<svg width="523px" height="52px" viewBox="0 0 523 52" version="1.1" xmlns="http://www.w3.org/2000/svg" xmlns:xlink="http://www.w3.org/1999/xlink">
    <!-- Generator: Sketch 51.3 (57544) - http://www.bohemiancoding.com/sketch -->
    <title>VECTOR_LOGO</title>
    <desc>Created with Sketch.</desc>
    <defs></defs>
    <g id="VECTOR_LOGO" stroke="none" stroke-width="1" fill="none" fill-rule="evenodd">
        <polyline id="Fill-1" fill="#FFFFFF" points="0 52 9.501 0.79 38.794 0.74 39.023 32.258 44.303 0.811 73.455 0.811 73.455 52 45.966 52 45.45 8.845 38.693 52 11.248 52 11.248 6.779 2.277 52 0 52"></polyline>
        <path d="M94.085,14.004 C94.175,13.493 94.355,13.224 94.595,13.224 C94.835,13.224 95.015,13.374 95.405,14.153 L103.595,31.073 L111.755,13.943 C111.965,13.464 112.145,13.224 112.415,13.224 C112.685,13.224 112.865,13.523 112.955,14.153 L115.685,32.692 C115.955,34.583 116.254,35.453 117.154,35.723 C118.024,35.993 118.625,36.022 119.014,36.022 C119.284,36.022 119.495,36.053 119.495,36.232 C119.495,36.473 119.134,36.563 118.714,36.563 C117.964,36.563 113.825,36.473 112.625,36.383 C111.935,36.322 111.755,36.232 111.755,36.053 C111.755,35.902 111.875,35.813 112.084,35.723 C112.265,35.663 112.354,35.272 112.235,34.433 L110.435,21.233 L110.315,21.233 L103.775,34.853 C103.085,36.263 102.935,36.532 102.665,36.532 C102.395,36.532 102.095,35.933 101.615,35.032 C100.895,33.652 98.525,29.062 98.165,28.223 C97.895,27.593 96.095,23.813 95.045,21.563 L94.925,21.563 L93.365,33.503 C93.306,34.043 93.275,34.433 93.275,34.913 C93.275,35.482 93.665,35.753 94.175,35.873 C94.715,35.993 95.135,36.022 95.436,36.022 C95.675,36.022 95.885,36.083 95.885,36.232 C95.885,36.503 95.615,36.563 95.165,36.563 C93.905,36.563 92.556,36.473 92.016,36.473 C91.445,36.473 90.005,36.563 89.045,36.563 C88.746,36.563 88.506,36.503 88.506,36.232 C88.506,36.083 88.686,36.022 88.986,36.022 C89.226,36.022 89.436,36.022 89.886,35.933 C90.726,35.753 90.965,34.583 91.116,33.563 L94.085,14.004" id="Fill-2" fill="#FFFFFF"></path>
        <path d="M131.878,27.233 C132.028,27.233 132.058,27.142 132.028,27.053 L129.328,19.644 C129.298,19.523 129.268,19.373 129.178,19.373 C129.088,19.373 129.028,19.523 128.999,19.644 L126.238,27.023 C126.208,27.142 126.238,27.233 126.358,27.233 L131.878,27.233 Z M125.758,28.733 C125.608,28.733 125.548,28.793 125.488,28.973 L123.869,33.263 C123.568,34.013 123.418,34.732 123.418,35.093 C123.418,35.633 123.688,36.022 124.619,36.022 L125.068,36.022 C125.428,36.022 125.519,36.083 125.519,36.263 C125.519,36.503 125.338,36.563 125.008,36.563 C124.048,36.563 122.758,36.473 121.829,36.473 C121.499,36.473 119.849,36.563 118.289,36.563 C117.899,36.563 117.719,36.503 117.719,36.263 C117.719,36.083 117.839,36.022 118.079,36.022 C118.349,36.022 118.769,35.993 119.009,35.963 C120.389,35.782 120.958,34.763 121.559,33.263 L129.088,14.424 C129.448,13.554 129.628,13.224 129.928,13.224 C130.198,13.224 130.378,13.493 130.678,14.184 C131.398,15.833 136.198,28.073 138.118,32.633 C139.258,35.333 140.128,35.753 140.758,35.902 C141.208,35.993 141.658,36.022 142.018,36.022 C142.258,36.022 142.408,36.053 142.408,36.263 C142.408,36.503 142.138,36.563 141.028,36.563 C139.948,36.563 137.758,36.563 135.358,36.503 C134.818,36.473 134.458,36.473 134.458,36.263 C134.458,36.083 134.578,36.022 134.878,35.993 C135.088,35.933 135.298,35.663 135.148,35.303 L132.748,28.943 C132.688,28.793 132.598,28.733 132.448,28.733 L125.758,28.733 Z" id="Fill-3" fill="#FFFFFF"></path>
        <path d="M147.238,32.482 C147.298,34.822 147.688,35.603 148.289,35.813 C148.798,35.993 149.368,36.022 149.848,36.022 C150.178,36.022 150.358,36.083 150.358,36.263 C150.358,36.503 150.088,36.563 149.668,36.563 C147.718,36.563 146.519,36.473 145.948,36.473 C145.678,36.473 144.269,36.563 142.708,36.563 C142.319,36.563 142.049,36.532 142.049,36.263 C142.049,36.083 142.229,36.022 142.529,36.022 C142.918,36.022 143.458,35.993 143.878,35.873 C144.659,35.633 144.778,34.763 144.809,32.153 L145.079,14.394 C145.079,13.794 145.168,13.374 145.468,13.374 C145.798,13.374 146.068,13.764 146.579,14.304 C146.938,14.693 151.498,19.583 155.878,23.934 C157.918,25.973 161.968,30.293 162.478,30.772 L162.628,30.772 L162.328,17.304 C162.298,15.474 162.028,14.903 161.308,14.604 C160.858,14.424 160.138,14.424 159.718,14.424 C159.358,14.424 159.238,14.334 159.238,14.153 C159.238,13.913 159.568,13.884 160.018,13.884 C161.578,13.884 163.018,13.974 163.648,13.974 C163.978,13.974 165.118,13.884 166.587,13.884 C166.978,13.884 167.278,13.913 167.278,14.153 C167.278,14.334 167.098,14.424 166.738,14.424 C166.438,14.424 166.198,14.424 165.837,14.514 C164.998,14.754 164.758,15.384 164.728,17.063 L164.398,35.993 C164.398,36.652 164.278,36.923 164.008,36.923 C163.678,36.923 163.318,36.593 162.988,36.263 C161.098,34.463 157.258,30.533 154.138,27.443 C150.868,24.203 147.539,20.453 146.999,19.884 L146.908,19.884 L147.238,32.482" id="Fill-4" fill="#FFFFFF"></path>
        <path d="M175.648,32.482 C175.708,34.822 176.098,35.603 176.698,35.813 C177.208,35.993 177.778,36.022 178.258,36.022 C178.588,36.022 178.768,36.083 178.768,36.263 C178.768,36.503 178.498,36.563 178.078,36.563 C176.128,36.563 174.928,36.473 174.358,36.473 C174.088,36.473 172.678,36.563 171.118,36.563 C170.728,36.563 170.458,36.532 170.458,36.263 C170.458,36.083 170.638,36.022 170.938,36.022 C171.328,36.022 171.868,35.993 172.288,35.873 C173.068,35.633 173.188,34.763 173.218,32.153 L173.488,14.394 C173.488,13.794 173.578,13.374 173.878,13.374 C174.208,13.374 174.478,13.764 174.988,14.304 C175.348,14.693 179.908,19.583 184.288,23.934 C186.328,25.973 190.377,30.293 190.887,30.772 L191.038,30.772 L190.737,17.304 C190.708,15.474 190.438,14.903 189.717,14.604 C189.268,14.424 188.547,14.424 188.127,14.424 C187.768,14.424 187.647,14.334 187.647,14.153 C187.647,13.913 187.978,13.884 188.428,13.884 C189.987,13.884 191.427,13.974 192.058,13.974 C192.387,13.974 193.527,13.884 194.997,13.884 C195.387,13.884 195.687,13.913 195.687,14.153 C195.687,14.334 195.507,14.424 195.147,14.424 C194.847,14.424 194.607,14.424 194.248,14.514 C193.407,14.754 193.167,15.384 193.137,17.063 L192.807,35.993 C192.807,36.652 192.688,36.923 192.417,36.923 C192.087,36.923 191.728,36.593 191.397,36.263 C189.507,34.463 185.667,30.533 182.548,27.443 C179.278,24.203 175.948,20.453 175.408,19.884 L175.318,19.884 L175.648,32.482" id="Fill-5" fill="#FFFFFF"></path>
        <path d="M202.378,22.583 C202.378,18.023 202.378,17.184 202.318,16.224 C202.258,15.203 201.958,14.693 201.298,14.544 C200.968,14.453 200.578,14.424 200.218,14.424 C199.918,14.424 199.738,14.363 199.738,14.124 C199.738,13.943 199.978,13.884 200.458,13.884 C201.598,13.884 203.488,13.974 204.358,13.974 C205.108,13.974 206.877,13.884 208.018,13.884 C208.408,13.884 208.647,13.943 208.647,14.124 C208.647,14.363 208.468,14.424 208.167,14.424 C207.868,14.424 207.627,14.453 207.268,14.514 C206.458,14.663 206.218,15.174 206.158,16.224 C206.098,17.184 206.098,18.023 206.098,22.583 L206.098,27.863 C206.098,30.772 206.098,33.143 206.218,34.433 C206.308,35.243 206.518,35.782 207.417,35.902 C207.837,35.963 208.498,36.022 208.948,36.022 C209.277,36.022 209.428,36.112 209.428,36.263 C209.428,36.473 209.188,36.563 208.857,36.563 C206.877,36.563 204.988,36.473 204.178,36.473 C203.488,36.473 201.598,36.563 200.398,36.563 C200.008,36.563 199.798,36.473 199.798,36.263 C199.798,36.112 199.918,36.022 200.278,36.022 C200.728,36.022 201.088,35.963 201.358,35.902 C201.958,35.782 202.138,35.272 202.228,34.402 C202.378,33.143 202.378,30.772 202.378,27.863 L202.378,22.583" id="Fill-6" fill="#FFFFFF"></path>
        <path d="M217.618,32.482 C217.678,34.822 218.068,35.603 218.668,35.813 C219.178,35.993 219.748,36.022 220.228,36.022 C220.558,36.022 220.738,36.083 220.738,36.263 C220.738,36.503 220.468,36.563 220.048,36.563 C218.098,36.563 216.898,36.473 216.328,36.473 C216.058,36.473 214.648,36.563 213.088,36.563 C212.698,36.563 212.428,36.532 212.428,36.263 C212.428,36.083 212.608,36.022 212.908,36.022 C213.298,36.022 213.838,35.993 214.258,35.873 C215.038,35.633 215.158,34.763 215.188,32.153 L215.458,14.394 C215.458,13.794 215.548,13.374 215.848,13.374 C216.178,13.374 216.448,13.764 216.958,14.304 C217.318,14.693 221.877,19.583 226.257,23.934 C228.297,25.973 232.347,30.293 232.857,30.772 L233.007,30.772 L232.707,17.304 C232.677,15.474 232.407,14.903 231.687,14.604 C231.237,14.424 230.517,14.424 230.097,14.424 C229.737,14.424 229.617,14.334 229.617,14.153 C229.617,13.913 229.947,13.884 230.397,13.884 C231.957,13.884 233.397,13.974 234.027,13.974 C234.357,13.974 235.497,13.884 236.967,13.884 C237.357,13.884 237.657,13.913 237.657,14.153 C237.657,14.334 237.477,14.424 237.117,14.424 C236.817,14.424 236.577,14.424 236.217,14.514 C235.377,14.754 235.137,15.384 235.107,17.063 L234.777,35.993 C234.777,36.652 234.657,36.923 234.387,36.923 C234.057,36.923 233.697,36.593 233.367,36.263 C231.477,34.463 227.637,30.533 224.518,27.443 C221.248,24.203 217.918,20.453 217.378,19.884 L217.288,19.884 L217.618,32.482" id="Fill-7" fill="#FFFFFF"></path>
        <path d="M262.411,34.553 C262.411,35.362 262.38,35.423 262.02,35.633 C260.071,36.652 257.13,36.982 254.791,36.982 C247.441,36.982 240.931,33.503 240.931,25.223 C240.931,20.423 243.421,17.063 246.151,15.413 C249.031,13.674 251.701,13.464 254.221,13.464 C256.291,13.464 258.93,13.823 259.53,13.943 C260.161,14.063 261.21,14.243 261.901,14.273 C262.26,14.304 262.321,14.424 262.321,14.634 C262.321,14.964 262.11,15.804 262.11,19.554 C262.11,20.033 262.02,20.184 261.78,20.184 C261.571,20.184 261.51,20.033 261.481,19.793 C261.39,19.104 261.241,18.144 260.46,17.304 C259.561,16.344 257.161,14.964 253.77,14.964 C252.121,14.964 249.93,15.084 247.831,16.823 C246.151,18.233 245.071,20.483 245.071,24.173 C245.071,30.623 249.18,35.453 255.51,35.453 C256.291,35.453 257.34,35.453 258.061,35.123 C258.51,34.913 258.63,34.522 258.63,34.013 L258.63,31.192 C258.63,29.693 258.63,28.553 258.6,27.653 C258.571,26.633 258.3,26.153 257.311,25.943 C257.071,25.883 256.561,25.854 256.141,25.854 C255.871,25.854 255.69,25.793 255.69,25.613 C255.69,25.373 255.901,25.313 256.321,25.313 C257.88,25.313 259.77,25.403 260.67,25.403 C261.6,25.403 263.19,25.313 264.18,25.313 C264.571,25.313 264.78,25.373 264.78,25.613 C264.78,25.793 264.6,25.854 264.39,25.854 C264.151,25.854 263.94,25.883 263.581,25.943 C262.77,26.093 262.47,26.604 262.44,27.653 C262.411,28.553 262.411,29.753 262.411,31.253 L262.411,34.553" id="Fill-8" fill="#FFFFFF"></path>
        <path d="M279.78,22.583 C279.78,18.023 279.78,17.184 279.72,16.224 C279.661,15.203 279.42,14.724 278.43,14.514 C278.19,14.453 277.68,14.424 277.26,14.424 C276.93,14.424 276.75,14.363 276.75,14.153 C276.75,13.943 276.96,13.884 277.411,13.884 C279,13.884 280.89,13.974 281.73,13.974 C282.959,13.974 284.7,13.884 286.081,13.884 C289.83,13.884 291.18,15.144 291.66,15.594 C292.32,16.224 293.16,17.573 293.16,19.163 C293.16,23.423 290.04,26.423 285.78,26.423 C285.629,26.423 285.299,26.423 285.15,26.393 C285,26.363 284.79,26.333 284.79,26.123 C284.79,25.883 285,25.793 285.629,25.793 C287.31,25.793 289.65,23.903 289.65,20.844 C289.65,19.854 289.559,17.844 287.879,16.344 C286.799,15.354 285.57,15.174 284.879,15.174 C284.43,15.174 283.98,15.203 283.709,15.294 C283.56,15.354 283.47,15.533 283.47,15.863 L283.47,27.863 C283.47,30.623 283.47,32.993 283.62,34.283 C283.709,35.123 283.89,35.782 284.79,35.902 C285.209,35.963 285.87,36.022 286.32,36.022 C286.65,36.022 286.799,36.112 286.799,36.263 C286.799,36.473 286.56,36.563 286.23,36.563 C284.25,36.563 282.36,36.473 281.581,36.473 C280.89,36.473 279,36.563 277.8,36.563 C277.411,36.563 277.2,36.473 277.2,36.263 C277.2,36.112 277.321,36.022 277.68,36.022 C278.13,36.022 278.491,35.963 278.76,35.902 C279.36,35.782 279.51,35.123 279.63,34.253 C279.78,32.993 279.78,30.623 279.78,27.863 L279.78,22.583" id="Fill-9" fill="#FFFFFF"></path>
        <path d="M298.14,22.583 C298.14,18.023 298.14,17.184 298.081,16.224 C298.02,15.203 297.78,14.724 296.79,14.514 C296.55,14.453 296.04,14.424 295.62,14.424 C295.29,14.424 295.11,14.363 295.11,14.153 C295.11,13.943 295.321,13.884 295.77,13.884 C297.36,13.884 299.25,13.974 300.15,13.974 C300.87,13.974 302.76,13.884 303.84,13.884 C304.29,13.884 304.5,13.943 304.5,14.153 C304.5,14.363 304.32,14.424 304.02,14.424 C303.69,14.424 303.51,14.453 303.15,14.514 C302.34,14.663 302.1,15.174 302.04,16.224 C301.98,17.184 301.98,18.023 301.98,22.583 L301.98,26.783 C301.98,31.133 302.85,32.963 304.32,34.163 C305.67,35.272 307.049,35.393 308.07,35.393 C309.389,35.393 311.01,34.973 312.209,33.772 C313.86,32.123 313.95,29.423 313.95,26.333 L313.95,22.583 C313.95,18.023 313.95,17.184 313.889,16.224 C313.83,15.203 313.589,14.724 312.6,14.514 C312.36,14.453 311.85,14.424 311.52,14.424 C311.19,14.424 311.01,14.363 311.01,14.153 C311.01,13.943 311.219,13.884 311.639,13.884 C313.169,13.884 315.059,13.974 315.089,13.974 C315.45,13.974 317.339,13.884 318.509,13.884 C318.929,13.884 319.139,13.943 319.139,14.153 C319.139,14.363 318.959,14.424 318.599,14.424 C318.269,14.424 318.089,14.453 317.729,14.514 C316.919,14.663 316.679,15.174 316.62,16.224 C316.559,17.184 316.559,18.023 316.559,22.583 L316.559,25.793 C316.559,29.123 316.229,32.663 313.709,34.822 C311.58,36.652 309.419,36.982 307.469,36.982 C305.879,36.982 303,36.893 300.81,34.913 C299.28,33.533 298.14,31.313 298.14,26.963 L298.14,22.583" id="Fill-10" fill="#FFFFFF"></path>
        <path d="M332.549,25.493 C331.919,25.043 331.229,24.833 330.059,24.773 C329.52,24.743 329.219,24.743 328.77,24.743 C328.649,24.743 328.589,24.803 328.589,24.953 L328.589,32.063 C328.589,34.043 328.68,34.553 329.639,34.942 C330.45,35.272 331.139,35.303 331.83,35.303 C333.179,35.303 335.459,34.583 335.459,31.463 C335.459,29.603 334.829,27.083 332.549,25.493 Z M328.589,23.093 C328.589,23.333 328.68,23.393 328.799,23.423 C329.069,23.483 329.52,23.513 330.209,23.513 C331.2,23.513 331.86,23.393 332.37,22.943 C333.149,22.313 333.599,21.233 333.599,19.764 C333.599,17.753 332.429,15.113 329.85,15.113 C329.429,15.113 329.16,15.113 328.86,15.174 C328.649,15.233 328.589,15.354 328.589,15.684 L328.589,23.093 Z M324.99,22.583 C324.99,18.023 324.99,17.184 324.93,16.224 C324.87,15.203 324.629,14.724 323.639,14.514 C323.4,14.453 322.889,14.424 322.469,14.424 C322.139,14.424 321.959,14.363 321.959,14.153 C321.959,13.943 322.17,13.884 322.62,13.884 C324.209,13.884 326.1,13.974 326.7,13.974 C328.169,13.974 329.339,13.884 330.36,13.884 C335.79,13.884 336.749,16.794 336.749,18.384 C336.749,20.844 335.339,22.313 333.69,23.633 C336.149,24.474 339.149,26.604 339.149,30.113 C339.149,33.323 336.659,36.652 331.139,36.652 C330.419,36.652 327.69,36.473 326.79,36.473 C326.1,36.473 324.209,36.563 323.01,36.563 C322.62,36.563 322.41,36.473 322.41,36.263 C322.41,36.112 322.53,36.022 322.889,36.022 C323.34,36.022 323.7,35.963 323.969,35.902 C324.57,35.782 324.719,35.123 324.84,34.253 C324.99,32.993 324.99,30.623 324.99,27.863 L324.99,22.583 Z" id="Fill-11" fill="#FFFFFF"></path>
        <path d="M349.95,27.863 C349.95,31.703 349.95,33.772 350.58,34.313 C351.089,34.763 351.87,34.973 354.209,34.973 C355.799,34.973 356.969,34.942 357.719,34.133 C358.079,33.743 358.439,32.902 358.499,32.333 C358.53,32.063 358.588,31.883 358.829,31.883 C359.04,31.883 359.069,32.033 359.069,32.393 C359.069,32.723 358.859,34.973 358.62,35.843 C358.439,36.503 358.29,36.652 356.729,36.652 C352.409,36.652 350.429,36.473 348,36.473 C347.309,36.473 345.419,36.563 344.219,36.563 C343.83,36.563 343.62,36.473 343.62,36.263 C343.62,36.112 343.74,36.022 344.1,36.022 C344.549,36.022 344.91,35.963 345.18,35.902 C345.78,35.782 345.93,35.123 346.049,34.253 C346.2,32.993 346.2,30.623 346.2,27.863 L346.2,22.583 C346.2,18.023 346.2,17.184 346.139,16.224 C346.08,15.203 345.839,14.724 344.85,14.514 C344.61,14.453 344.25,14.424 343.86,14.424 C343.53,14.424 343.35,14.363 343.35,14.153 C343.35,13.943 343.559,13.884 344.01,13.884 C345.419,13.884 347.309,13.974 348.12,13.974 C348.839,13.974 351.03,13.884 352.2,13.884 C352.62,13.884 352.829,13.943 352.829,14.153 C352.829,14.363 352.649,14.424 352.29,14.424 C351.959,14.424 351.479,14.453 351.12,14.514 C350.309,14.663 350.069,15.174 350.009,16.224 C349.95,17.184 349.95,18.023 349.95,22.583 L349.95,27.863" id="Fill-12" fill="#FFFFFF"></path>
        <path d="M364.349,22.583 C364.349,18.023 364.349,17.184 364.29,16.224 C364.229,15.203 363.929,14.693 363.269,14.544 C362.939,14.453 362.549,14.424 362.189,14.424 C361.889,14.424 361.709,14.363 361.709,14.124 C361.709,13.943 361.95,13.884 362.429,13.884 C363.569,13.884 365.459,13.974 366.329,13.974 C367.079,13.974 368.848,13.884 369.989,13.884 C370.379,13.884 370.619,13.943 370.619,14.124 C370.619,14.363 370.439,14.424 370.139,14.424 C369.838,14.424 369.598,14.453 369.239,14.514 C368.428,14.663 368.189,15.174 368.129,16.224 C368.069,17.184 368.069,18.023 368.069,22.583 L368.069,27.863 C368.069,30.772 368.069,33.143 368.189,34.433 C368.279,35.243 368.489,35.782 369.389,35.902 C369.809,35.963 370.469,36.022 370.918,36.022 C371.249,36.022 371.399,36.112 371.399,36.263 C371.399,36.473 371.159,36.563 370.829,36.563 C368.848,36.563 366.959,36.473 366.149,36.473 C365.459,36.473 363.569,36.563 362.37,36.563 C361.979,36.563 361.769,36.473 361.769,36.263 C361.769,36.112 361.889,36.022 362.249,36.022 C362.7,36.022 363.059,35.963 363.329,35.902 C363.929,35.782 364.109,35.272 364.2,34.402 C364.349,33.143 364.349,30.772 364.349,27.863 L364.349,22.583" id="Fill-13" fill="#FFFFFF"></path>
        <path d="M378.067,33.713 C375.126,31.133 374.347,27.773 374.347,24.863 C374.347,22.823 374.977,19.283 377.857,16.644 C380.016,14.663 382.867,13.464 387.336,13.464 C389.196,13.464 390.306,13.584 391.686,13.764 C392.826,13.913 393.786,14.184 394.686,14.273 C395.016,14.304 395.136,14.453 395.136,14.634 C395.136,14.874 395.045,15.233 394.986,16.283 C394.926,17.273 394.956,18.924 394.896,19.523 C394.866,19.974 394.806,20.213 394.536,20.213 C394.295,20.213 394.236,19.974 394.236,19.554 C394.206,18.623 393.816,17.573 393.066,16.794 C392.076,15.743 389.736,14.934 386.976,14.934 C384.367,14.934 382.657,15.594 381.336,16.794 C379.147,18.804 378.577,21.653 378.577,24.563 C378.577,31.703 384.006,35.243 388.026,35.243 C390.696,35.243 392.316,34.942 393.516,33.563 C394.026,32.993 394.416,32.123 394.536,31.583 C394.625,31.103 394.686,30.982 394.926,30.982 C395.136,30.982 395.196,31.192 395.196,31.433 C395.196,31.793 394.835,34.402 394.536,35.423 C394.386,35.933 394.266,36.083 393.756,36.293 C392.556,36.772 390.276,36.982 388.356,36.982 C384.247,36.982 380.796,36.083 378.067,33.713" id="Fill-14" fill="#FFFFFF"></path>
        <path d="M409.829,27.233 C409.979,27.233 410.009,27.142 409.979,27.053 L407.279,19.644 C407.249,19.523 407.219,19.373 407.129,19.373 C407.039,19.373 406.979,19.523 406.949,19.644 L404.189,27.023 C404.159,27.142 404.189,27.233 404.309,27.233 L409.829,27.233 Z M403.709,28.733 C403.559,28.733 403.5,28.793 403.439,28.973 L401.819,33.263 C401.519,34.013 401.37,34.732 401.37,35.093 C401.37,35.633 401.639,36.022 402.569,36.022 L403.019,36.022 C403.379,36.022 403.469,36.083 403.469,36.263 C403.469,36.503 403.29,36.563 402.959,36.563 C402,36.563 400.709,36.473 399.779,36.473 C399.45,36.473 397.799,36.563 396.24,36.563 C395.849,36.563 395.669,36.503 395.669,36.263 C395.669,36.083 395.79,36.022 396.03,36.022 C396.299,36.022 396.719,35.993 396.959,35.963 C398.339,35.782 398.91,34.763 399.509,33.263 L407.039,14.424 C407.399,13.554 407.579,13.224 407.879,13.224 C408.149,13.224 408.329,13.493 408.629,14.184 C409.349,15.833 414.149,28.073 416.069,32.633 C417.208,35.333 418.079,35.753 418.708,35.902 C419.159,35.993 419.609,36.022 419.968,36.022 C420.208,36.022 420.359,36.053 420.359,36.263 C420.359,36.503 420.088,36.563 418.978,36.563 C417.899,36.563 415.708,36.563 413.309,36.503 C412.769,36.473 412.409,36.473 412.409,36.263 C412.409,36.083 412.529,36.022 412.829,35.993 C413.039,35.933 413.249,35.663 413.099,35.303 L410.699,28.943 C410.639,28.793 410.549,28.733 410.399,28.733 L403.709,28.733 Z" id="Fill-15" fill="#FFFFFF"></path>
        <path d="M425.55,15.563 L421.081,15.684 C419.341,15.743 418.621,15.894 418.171,16.554 C417.871,17.004 417.721,17.363 417.661,17.604 C417.601,17.844 417.511,17.964 417.332,17.964 C417.122,17.964 417.061,17.813 417.061,17.483 C417.061,17.004 417.631,14.273 417.691,14.033 C417.781,13.644 417.871,13.464 418.051,13.464 C418.292,13.464 418.591,13.764 419.341,13.823 C420.211,13.913 421.351,13.974 422.341,13.974 L434.22,13.974 C436.14,13.974 436.86,13.674 437.1,13.674 C437.31,13.674 437.34,13.854 437.34,14.304 C437.34,14.934 437.25,17.004 437.25,17.783 C437.22,18.083 437.161,18.264 436.98,18.264 C436.741,18.264 436.68,18.113 436.65,17.663 L436.621,17.333 C436.56,16.554 435.75,15.714 433.081,15.653 L429.3,15.563 L429.3,27.863 C429.3,30.623 429.3,32.993 429.451,34.283 C429.541,35.123 429.72,35.782 430.621,35.902 C431.041,35.963 431.701,36.022 432.151,36.022 C432.481,36.022 432.63,36.112 432.63,36.263 C432.63,36.473 432.39,36.563 432.06,36.563 C430.081,36.563 428.191,36.473 427.351,36.473 C426.661,36.473 424.771,36.563 423.571,36.563 C423.181,36.563 422.971,36.473 422.971,36.263 C422.971,36.112 423.091,36.022 423.451,36.022 C423.901,36.022 424.261,35.963 424.531,35.902 C425.13,35.782 425.311,35.123 425.401,34.253 C425.55,32.993 425.55,30.623 425.55,27.863 L425.55,15.563" id="Fill-16" fill="#FFFFFF"></path>
        <path d="M442.861,22.583 C442.861,18.023 442.861,17.184 442.8,16.224 C442.741,15.203 442.441,14.693 441.781,14.544 C441.451,14.453 441.061,14.424 440.701,14.424 C440.401,14.424 440.221,14.363 440.221,14.124 C440.221,13.943 440.46,13.884 440.941,13.884 C442.081,13.884 443.97,13.974 444.84,13.974 C445.59,13.974 447.361,13.884 448.5,13.884 C448.89,13.884 449.13,13.943 449.13,14.124 C449.13,14.363 448.951,14.424 448.651,14.424 C448.35,14.424 448.111,14.453 447.75,14.514 C446.941,14.663 446.701,15.174 446.64,16.224 C446.581,17.184 446.581,18.023 446.581,22.583 L446.581,27.863 C446.581,30.772 446.581,33.143 446.701,34.433 C446.791,35.243 447,35.782 447.901,35.902 C448.321,35.963 448.981,36.022 449.43,36.022 C449.76,36.022 449.911,36.112 449.911,36.263 C449.911,36.473 449.67,36.563 449.34,36.563 C447.361,36.563 445.47,36.473 444.661,36.473 C443.97,36.473 442.081,36.563 440.88,36.563 C440.491,36.563 440.281,36.473 440.281,36.263 C440.281,36.112 440.401,36.022 440.761,36.022 C441.21,36.022 441.571,35.963 441.84,35.902 C442.441,35.782 442.621,35.272 442.71,34.402 C442.861,33.143 442.861,30.772 442.861,27.863 L442.861,22.583" id="Fill-17" fill="#FFFFFF"></path>
        <path d="M473.167,25.793 C473.167,19.073 469.296,14.903 464.377,14.903 C460.927,14.903 456.998,16.823 456.998,24.293 C456.998,30.533 460.447,35.482 466.207,35.482 C468.307,35.482 473.167,34.463 473.167,25.793 Z M452.858,25.223 C452.858,20.094 456.248,13.464 465.247,13.464 C472.716,13.464 477.367,17.813 477.367,24.684 C477.367,31.553 472.567,36.982 464.947,36.982 C456.337,36.982 452.858,30.533 452.858,25.223 Z" id="Fill-18" fill="#FFFFFF"></path>
        <path d="M485.47,32.482 C485.531,34.822 485.92,35.603 486.52,35.813 C487.03,35.993 487.6,36.022 488.081,36.022 C488.411,36.022 488.59,36.083 488.59,36.263 C488.59,36.503 488.32,36.563 487.9,36.563 C485.951,36.563 484.75,36.473 484.18,36.473 C483.911,36.473 482.5,36.563 480.941,36.563 C480.55,36.563 480.281,36.532 480.281,36.263 C480.281,36.083 480.46,36.022 480.76,36.022 C481.151,36.022 481.691,35.993 482.111,35.873 C482.89,35.633 483.01,34.763 483.041,32.153 L483.31,14.394 C483.31,13.794 483.401,13.374 483.701,13.374 C484.031,13.374 484.3,13.764 484.81,14.304 C485.17,14.693 489.73,19.583 494.11,23.934 C496.15,25.973 500.2,30.293 500.709,30.772 L500.86,30.772 L500.56,17.304 C500.53,15.474 500.259,14.903 499.54,14.604 C499.089,14.424 498.37,14.424 497.95,14.424 C497.59,14.424 497.47,14.334 497.47,14.153 C497.47,13.913 497.8,13.884 498.25,13.884 C499.81,13.884 501.25,13.974 501.879,13.974 C502.209,13.974 503.35,13.884 504.82,13.884 C505.209,13.884 505.509,13.913 505.509,14.153 C505.509,14.334 505.33,14.424 504.969,14.424 C504.669,14.424 504.429,14.424 504.07,14.514 C503.23,14.754 502.99,15.384 502.959,17.063 L502.629,35.993 C502.629,36.652 502.509,36.923 502.24,36.923 C501.91,36.923 501.549,36.593 501.219,36.263 C499.33,34.463 495.49,30.533 492.37,27.443 C489.1,24.203 485.77,20.453 485.23,19.884 L485.14,19.884 L485.47,32.482" id="Fill-19" fill="#FFFFFF"></path>
        <path d="M510.55,36.203 C510.071,35.993 509.981,35.843 509.981,35.183 C509.981,33.533 510.101,31.732 510.13,31.253 C510.161,30.803 510.25,30.473 510.491,30.473 C510.76,30.473 510.791,30.743 510.791,30.982 C510.791,31.373 510.911,32.003 511.061,32.513 C511.72,34.732 513.491,35.543 515.35,35.543 C518.05,35.543 519.371,33.713 519.371,32.123 C519.371,30.653 518.92,29.243 516.43,27.323 L515.05,26.243 C511.75,23.663 510.611,21.563 510.611,19.134 C510.611,15.833 513.371,13.464 517.541,13.464 C519.491,13.464 520.75,13.764 521.53,13.974 C521.8,14.033 521.95,14.124 521.95,14.334 C521.95,14.724 521.831,15.594 521.831,17.934 C521.831,18.594 521.74,18.833 521.5,18.833 C521.291,18.833 521.2,18.653 521.2,18.293 C521.2,18.023 521.05,17.094 520.42,16.313 C519.97,15.743 519.1,14.844 517.15,14.844 C514.93,14.844 513.581,16.134 513.581,17.934 C513.581,19.313 514.27,20.363 516.76,22.253 L517.6,22.883 C521.2,25.673 522.52,27.683 522.52,30.533 C522.52,32.272 521.86,34.343 519.701,35.753 C518.201,36.713 516.52,36.982 514.93,36.982 C513.191,36.982 511.84,36.772 510.55,36.203" id="Fill-20" fill="#FFFFFF"></path>
    </g>
</svg>