<svg id="Layer_1" data-name="Layer 1" xmlns="http://www.w3.org/2000/svg" viewBox="0 0 1793.3 240.84"><defs><style>.cls-1{fill:#fff;}</style></defs><title>monsterbilligt</title><path class="cls-1" d="M654.75,1348.58q32.13,0,26.84,37.67l-14.68,104.44H632.2l15.32-109a5.45,5.45,0,0,0-.87-4,3.74,3.74,0,0,0-3.25-1.71H632.25a5.09,5.09,0,0,0-3.73,1.71,7,7,0,0,0-2,4l-15.31,109H576.5l15.32-109a5.44,5.44,0,0,0-.86-4,3.78,3.78,0,0,0-3.26-1.71H576.56a5.08,5.08,0,0,0-3.73,1.71,6.86,6.86,0,0,0-2,4l-15.33,109H520.8l19.57-139.25H572l-1,7.13q9.43-10,25.76-10h2.33q19.17,0,24.84,13.13,9.87-13.12,28.52-13.13Z" transform="translate(-520.8 -1298.08)"/><path class="cls-1" d="M800.23,1386.25l-9.79,69.62q-5.3,37.68-37.41,37.67H723.76q-32.14,0-26.83-37.67l9.78-69.62q5.29-37.66,37.42-37.67h29.28Q805.53,1348.58,800.23,1386.25Zm-45.62,77.61L766.68,1378a5.44,5.44,0,0,0-.86-4,3.76,3.76,0,0,0-3.26-1.71H748.31a5.08,5.08,0,0,0-3.73,1.71,7,7,0,0,0-2,4l-12.08,85.89a5.46,5.46,0,0,0,.87,4,3.75,3.75,0,0,0,3.26,1.71h14.24a5.1,5.1,0,0,0,3.74-1.71A7,7,0,0,0,754.61,1463.86Z" transform="translate(-520.8 -1298.08)"/><path class="cls-1" d="M843.84,1490.69H809.12l19.58-139.25h31.6l-1,7.13q9.42-10,25.75-10h5.44q32.13,0,26.83,37.67l-14.67,104.44H867.94l15.31-109a5.44,5.44,0,0,0-.86-4,3.77,3.77,0,0,0-3.26-1.71H864.89a5.1,5.1,0,0,0-3.74,1.71,6.92,6.92,0,0,0-2,4Z" transform="translate(-520.8 -1298.08)"/><path class="cls-1" d="M998.07,1403.37q32.13,0,26.83,37.67l-2.08,14.83q-5.3,37.68-37.42,37.67H956.64q-32.11,0-26.82-37.67l1.25-8.84h32.12l-1.77,12.55a5.46,5.46,0,0,0,.86,4,3.74,3.74,0,0,0,3.26,1.71h21.24a5.13,5.13,0,0,0,3.74-1.71,7,7,0,0,0,2-4l2.4-17.12a5.44,5.44,0,0,0-.86-4,3.77,3.77,0,0,0-3.26-1.71H964.11q-32.13,0-26.83-37.67l1.81-12.84q5.28-37.66,37.41-37.67h27.21q32.1,0,26.82,37.67l-.73,5.13H997.68l1.25-8.84a5.43,5.43,0,0,0-.87-4,3.75,3.75,0,0,0-3.26-1.71H975.12a5.1,5.1,0,0,0-3.74,1.71,7.07,7.07,0,0,0-2,4l-2.12,15.12a5.52,5.52,0,0,0,.86,4,3.76,3.76,0,0,0,3.26,1.71Z" transform="translate(-520.8 -1298.08)"/><path class="cls-1" d="M1087.59,1468.72H1098l-3.48,24.82h-24.35q-32.14,0-26.83-37.67l18.92-134.68h34.71l-4.25,30.25h21.77l-3.9,27.68h-21.75l-10.68,75.9q-1.11,8,1.33,10.84C1081.07,1467.76,1083.79,1468.72,1087.59,1468.72Z" transform="translate(-520.8 -1298.08)"/><path class="cls-1" d="M1194.37,1348.58q32.12,0,26.83,37.67l-6.35,45.08h-58.8l-4.09,29.11a5.43,5.43,0,0,0,.86,4,3.73,3.73,0,0,0,3.26,1.72h14.25a5.07,5.07,0,0,0,3.73-1.72,7,7,0,0,0,2-4l2.17-15.41h34.71l-1.53,10.84q-5.3,37.68-37.41,37.67h-29.27q-32.15,0-26.83-37.67l9.78-69.62q5.3-37.66,37.42-37.67Zm-34.8,57.64h24.1l3.61-25.68a5.4,5.4,0,0,0-.87-4,3.7,3.7,0,0,0-3.24-1.71h-14.25a5.11,5.11,0,0,0-3.75,1.71,7,7,0,0,0-2,4Z" transform="translate(-520.8 -1298.08)"/><path class="cls-1" d="M1299.54,1348.58h6.74l-5.21,37.1H1284q-8.81,0-10.21,10l-13.35,95h-34.71l19.56-139.25h31.6l-1.88,13.41Q1284.76,1348.58,1299.54,1348.58Z" transform="translate(-520.8 -1298.08)"/><path class="cls-1" d="M1382.36,1348.58h5.44q32.12,0,26.83,37.67l-9.78,69.62q-5.3,37.68-37.42,37.67H1362q-18.66,0-24.84-13.13l-1.44,10.28h-29.28l26-184.63h34.71l-6.93,49.37Q1369.4,1348.57,1382.36,1348.58Zm-25.89,33.1-11.07,78.76a5.43,5.43,0,0,0,.86,4,3.75,3.75,0,0,0,3.26,1.72h14.25a5.12,5.12,0,0,0,3.74-1.72,7,7,0,0,0,2-4l11.06-78.76a5.39,5.39,0,0,0-.85-4,3.78,3.78,0,0,0-3.26-1.71h-14.25a5.08,5.08,0,0,0-3.73,1.71A6.86,6.86,0,0,0,1356.47,1381.68Z" transform="translate(-520.8 -1298.08)"/><path class="cls-1" d="M1428.19,1490.69l19.56-139.25h34.72l-19.56,139.25ZM1480.9,1334q-6.42,6-14.18,6a15.29,15.29,0,0,1-12.61-6.13q-4.86-6.14-3.61-14.84a24.4,24.4,0,0,1,7.78-14.84q6.54-6.14,14.34-6.13a15,15,0,0,1,12.48,6.13q4.7,6.13,3.46,15A24.4,24.4,0,0,1,1480.9,1334Z" transform="translate(-520.8 -1298.08)"/><path class="cls-1" d="M1522,1490.69h-34.72l26-184.63h34.72Z" transform="translate(-520.8 -1298.08)"/><path class="cls-1" d="M1580,1490.69h-34.71l25.94-184.63h34.71Z" transform="translate(-520.8 -1298.08)"/><path class="cls-1" d="M1608,1490.69l19.56-139.25h34.71l-19.56,139.25ZM1660.69,1334q-6.43,6-14.18,6a15.3,15.3,0,0,1-12.62-6.13q-4.85-6.14-3.61-14.84a24.4,24.4,0,0,1,7.78-14.84q6.56-6.14,14.34-6.13a15,15,0,0,1,12.48,6.13q4.69,6.13,3.46,15A24.39,24.39,0,0,1,1660.69,1334Z" transform="translate(-520.8 -1298.08)"/><path class="cls-1" d="M1780.11,1351.44l-21,149.8q-5.29,37.66-37.42,37.67h-25.91q-32.12,0-26.83-37.67l.64-4.56h31.35l-1.28,9.13a5.34,5.34,0,0,0,.86,4,3.75,3.75,0,0,0,3.26,1.72H1718a5.12,5.12,0,0,0,3.74-1.72,7,7,0,0,0,2-4l4-28.54q-9,6.86-22.21,6.86h-5.44q-32.11,0-26.83-37.67l8.47-60.21q5.28-37.66,37.41-37.67h5.44q18.66,0,24.84,13.13l1.44-10.27ZM1731.4,1451l9.75-69.35a5.4,5.4,0,0,0-.86-4A3.77,3.77,0,0,0,1737,1376h-14.25a5.11,5.11,0,0,0-3.74,1.71,6.92,6.92,0,0,0-2,4l-9.74,69.35a5.36,5.36,0,0,0,.87,4,3.73,3.73,0,0,0,3.25,1.71h14.25a5.15,5.15,0,0,0,3.74-1.71A6.89,6.89,0,0,0,1731.4,1451Z" transform="translate(-520.8 -1298.08)"/><path class="cls-1" d="M1833.32,1468.72h10.36l-3.5,24.82h-24.35q-32.11,0-26.83-37.67l18.94-134.68h34.71l-4.25,30.25h21.76l-3.89,27.68H1834.5l-10.66,75.9q-1.12,8,1.33,10.84C1826.8,1467.76,1829.51,1468.72,1833.32,1468.72Z" transform="translate(-520.8 -1298.08)"/><path class="cls-1" d="M1864.84,1473a24.25,24.25,0,0,1,7.49-14.56,19.87,19.87,0,0,1,14.05-6,14.77,14.77,0,0,1,12.36,6q4.62,6,3.41,14.56a24.18,24.18,0,0,1-7.5,14.55,19.87,19.87,0,0,1-14.05,6,14.77,14.77,0,0,1-12.36-6Q1863.64,1481.57,1864.84,1473Z" transform="translate(-520.8 -1298.08)"/><path class="cls-1" d="M2025.32,1406.22h-34.71l3.45-24.54a5.44,5.44,0,0,0-.86-4,3.77,3.77,0,0,0-3.26-1.71H1975.7a5.1,5.1,0,0,0-3.74,1.71,6.92,6.92,0,0,0-2,4l-11.07,78.76a5.39,5.39,0,0,0,.87,4,3.73,3.73,0,0,0,3.25,1.72h14.25a5.12,5.12,0,0,0,3.74-1.72,7,7,0,0,0,2-4l3.44-24.54h34.71l-2.8,20q-5.3,37.68-37.42,37.67h-29.28q-32.12,0-26.83-37.67l9.8-69.62q5.28-37.66,37.41-37.67h29.27q32.13,0,26.83,37.67Z" transform="translate(-520.8 -1298.08)"/><path class="cls-1" d="M2143.68,1386.25l-9.8,69.62q-5.3,37.68-37.41,37.67H2067.2q-32.14,0-26.83-37.67l9.78-69.62q5.29-37.66,37.42-37.67h29.28Q2149,1348.58,2143.68,1386.25Zm-45.63,77.61,12.07-85.89a5.44,5.44,0,0,0-.86-4,3.75,3.75,0,0,0-3.26-1.71h-14.25A5.09,5.09,0,0,0,2088,1374a7,7,0,0,0-2,4L2074,1463.86a5.51,5.51,0,0,0,.87,4,3.75,3.75,0,0,0,3.26,1.71h14.25a5.09,5.09,0,0,0,3.73-1.71A7,7,0,0,0,2098.05,1463.86Z" transform="translate(-520.8 -1298.08)"/><path class="cls-1" d="M2286.52,1348.58q32.11,0,26.84,37.67l-14.68,104.44H2264l15.32-109a5.49,5.49,0,0,0-.86-4,3.76,3.76,0,0,0-3.26-1.71H2264a5.11,5.11,0,0,0-3.74,1.71,7,7,0,0,0-2,4l-15.31,109h-34.71l15.31-109a5.4,5.4,0,0,0-.86-4,3.77,3.77,0,0,0-3.25-1.71h-11.14a5.1,5.1,0,0,0-3.74,1.71,6.92,6.92,0,0,0-2,4l-15.32,109h-34.71l19.57-139.25h31.6l-1,7.13q9.42-10,25.75-10h2.34q19.15,0,24.84,13.13,9.87-13.12,28.52-13.13Z" transform="translate(-520.8 -1298.08)"/></svg>