<svg id="Layer_1" data-name="Layer 1" xmlns="http://www.w3.org/2000/svg" viewBox="0 0 365.59 108.66"><defs><style>.cls-1,.cls-2{fill:#fff;}.cls-1{fill-rule:evenodd;}</style></defs><title>umbraco_logotype_white</title><path class="cls-1" d="M115.07,421.15a54.26,54.26,0,1,1,54.26,54.33A54.29,54.29,0,0,1,115.07,421.15Zm53.16,18.58a53.23,53.23,0,0,1-12.54-1.13,9.59,9.59,0,0,1-6.85-5.51Q147,428.85,147.05,420a83.5,83.5,0,0,1,.58-9.22q.53-4.47,1.06-7.37l.37-1.92a1,1,0,0,0,0-.17,1.1,1.1,0,0,0-.91-1.09l-7-1.09H141a1.1,1.1,0,0,0-1.07.85c-.12.45-.19.78-.4,1.85-.4,2.06-.77,4.07-1.18,7a90.88,90.88,0,0,0-.79,9.6,49.73,49.73,0,0,0,0,6.72q.25,8.91,3.06,14.23t9.52,7.66q6.71,2.34,18.7,2.29h1q12,.05,18.69-2.29t9.52-7.66q2.81-5.33,3.06-14.23a49.44,49.44,0,0,0,0-6.72,90.93,90.93,0,0,0-.79-9.6c-.41-2.9-.78-4.9-1.18-7-.21-1.07-.28-1.4-.4-1.85a1.1,1.1,0,0,0-1.07-.85h-.18l-7,1.09a1.1,1.1,0,0,0-.92,1.09,1.13,1.13,0,0,0,0,.17l.37,1.92q.53,2.91,1.07,7.37a84,84,0,0,1,.57,9.22q.09,8.83-1.79,13.08A9.59,9.59,0,0,1,183,438.6a53.2,53.2,0,0,1-12.53,1.13Z" transform="translate(-115.07 -366.82)"/><path class="cls-2" d="M453.83,424.55c0-9.3,2.66-15.83,13.42-15.83s13.41,6.53,13.41,15.83-2.66,15.83-13.41,15.83S453.83,433.85,453.83,424.55Zm20,0c0-6.47-.84-10.15-6.58-10.15s-6.59,3.69-6.59,10.15.85,10.15,6.59,10.15S473.83,431,473.83,424.55Z" transform="translate(-115.07 -366.82)"/><path class="cls-2" d="M267.94,439.19a.88.88,0,0,0,.78.46h2.51a.9.9,0,0,0,.9-.9V410.34a.9.9,0,0,0-.9-.9h-5a.9.9,0,0,0-.9.9v22.55a13.69,13.69,0,0,1-7,1.75c-3.2,0-4.77-1.39-4.77-4.47V410.34a.9.9,0,0,0-.9-.9h-5a.89.89,0,0,0-.89.9v20.43c0,5.8,2.72,9.6,10.39,9.6a17.39,17.39,0,0,0,9.79-3.14l.89,2Z" transform="translate(-115.07 -366.82)"/><path class="cls-2" d="M324.32,418.32c0-5.74-2.84-9.61-10-9.61a17.27,17.27,0,0,0-9.67,3c-1.27-1.87-3.69-3-7.74-3a15.7,15.7,0,0,0-9.12,3.14l-.88-2h0a.9.9,0,0,0-.78-.46h-2.52a.9.9,0,0,0-.9.9v28.41a.9.9,0,0,0,.9.9h5a.9.9,0,0,0,.9-.9V416.21a12.17,12.17,0,0,1,6.34-1.75c2.72,0,4.29,1,4.29,3.87v20.43a.9.9,0,0,0,.9.9h5a.9.9,0,0,0,.9-.9V416.22a11.78,11.78,0,0,1,6.35-1.77c2.66,0,4.29,1,4.29,3.87v20.43a.9.9,0,0,0,.9.9h5a.9.9,0,0,0,.9-.9Z" transform="translate(-115.07 -366.82)"/><path class="cls-2" d="M339.78,437.24a16,16,0,0,0,9.79,3.14c8.83,0,12.08-5.92,12.08-15.83s-3.26-15.83-12.08-15.83a15.34,15.34,0,0,0-8.1,2.36v-9.14a.9.9,0,0,0-.9-.91h-5a.9.9,0,0,0-.9.91v36.82a.9.9,0,0,0,.9.9h2.51a.87.87,0,0,0,.78-.46h0Zm8.21-2.6a12.88,12.88,0,0,1-6.52-1.75V416.21a12.88,12.88,0,0,1,6.52-1.75c5.92,0,6.83,4.53,6.83,10.09S353.92,434.64,348,434.64Z" transform="translate(-115.07 -366.82)"/><path class="cls-2" d="M386.68,414.66a16.65,16.65,0,0,0-2.35-.15,14.8,14.8,0,0,0-7.74,1.81v22.43a.9.9,0,0,1-.9.9h-5a.9.9,0,0,1-.9-.9V410.34a.9.9,0,0,1,.9-.9h2.51a.89.89,0,0,1,.78.46h0l.88,2a15.32,15.32,0,0,1,9.55-3.14,14.42,14.42,0,0,1,2.37.2h0c.46,0,.82.75.82,1.23v3.62a.9.9,0,0,1-.9.9h-.07" transform="translate(-115.07 -366.82)"/><path class="cls-2" d="M404,425.7c-3,.36-4.78,1.5-4.78,4.65,0,2.3,1,4.47,4.65,4.47a11.12,11.12,0,0,0,6.47-2V425Zm8,11.54a14.66,14.66,0,0,1-9.12,3.14c-7.8,0-10.39-4.83-10.39-9.67,0-6.53,4.23-9.31,11.06-9.85l6.77-.54v-1.51c0-3.08-1.45-4.29-5.92-4.29a25.31,25.31,0,0,0-8.25,1.38.88.88,0,0,1-.28,0,.9.9,0,0,1-.9-.9v-4a.9.9,0,0,1,.58-.85h0a28.93,28.93,0,0,1,9.33-1.51c9.91,0,12.2,4.35,12.2,10.76v19.28a.9.9,0,0,1-.9.9h-2.51a.88.88,0,0,1-.78-.46h0Z" transform="translate(-115.07 -366.82)"/><path class="cls-2" d="M446.43,433.43a.92.92,0,0,1,.27,0,.9.9,0,0,1,.9.91v4a.91.91,0,0,1-.55.83h0a21.71,21.71,0,0,1-7.78,1.27c-10.7,0-14-6.41-14-15.83s3.27-15.83,14-15.83A21.61,21.61,0,0,1,447,410h0a.9.9,0,0,1,.56.84v4a.9.9,0,0,1-.9.9,1.08,1.08,0,0,1-.29,0h0a20.73,20.73,0,0,0-6.73-1c-5.86,0-7.56,4-7.56,9.85s1.7,9.85,7.56,9.85a20.76,20.76,0,0,0,6.74-1" transform="translate(-115.07 -366.82)"/></svg>