<?xml version="1.0" encoding="UTF-8"?>
<svg width="429px" height="321px" viewBox="0 0 429 321" version="1.1" xmlns="http://www.w3.org/2000/svg" xmlns:xlink="http://www.w3.org/1999/xlink">
    <!-- Generator: Sketch 47.1 (45422) - http://www.bohemiancoding.com/sketch -->
    <title>Page 1</title>
    <desc>Created with Sketch.</desc>
    <defs>
        <filter x="-52.2%" y="-62.8%" width="231.8%" height="317.3%" filterUnits="objectBoundingBox" id="filter-1">
            <feMorphology radius="9.5" operator="dilate" in="SourceAlpha" result="shadowSpreadOuter1"></feMorphology>
            <feOffset dx="38" dy="77" in="shadowSpreadOuter1" result="shadowOffsetOuter1"></feOffset>
            <feGaussianBlur stdDeviation="38.5" in="shadowOffsetOuter1" result="shadowBlurOuter1"></feGaussianBlur>
            <feColorMatrix values="0 0 0 0 0   0 0 0 0 0   0 0 0 0 0  0 0 0 0.8 0" type="matrix" in="shadowBlurOuter1" result="shadowMatrixOuter1"></feColorMatrix>
            <feMerge>
                <feMergeNode in="shadowMatrixOuter1"></feMergeNode>
                <feMergeNode in="SourceGraphic"></feMergeNode>
            </feMerge>
        </filter>
        <polygon id="path-2" points="0 168 277 168 277 0 0 0"></polygon>
    </defs>
    <g id="Page-1" stroke="none" stroke-width="1" fill="none" fill-rule="evenodd">
        <g id="dark-version-copy-11" transform="translate(-283.000000, -229.000000)">
            <g id="splash" transform="translate(237.000000, 171.000000)">
                <g id="Page-1" filter="url(#filter-1)" transform="translate(84.000000, 58.000000)">
                    <mask id="mask-3" fill="white">
                        <use xlink:href="#path-2"></use>
                    </mask>
                    <use id="Clip-12" fill="#092CE3" xlink:href="#path-2"></use>
                    <g id="Group-2" mask="url(#mask-3)" fill="#00EDFF">
                        <g transform="translate(123.000000, 60.000000)">
                            <polygon id="Fill-5" points="33.9068576 7.92695298 20.8834114 7.92695298 20.8834114 41.6457572 13.0234461 41.6457572 13.0234461 7.92695298 0 7.92695298 0 1 33.9068576 1"></polygon>
                            <path d="M65.9401686,41.7907081 L58.2523193,41.7907081 L58.2523193,24.9599298 C58.2523193,22.5938887 57.812276,20.8478386 56.9327631,19.7217794 C56.0526765,18.5962926 54.8099988,18.0329768 53.2035825,18.0329768 C52.5151184,18.0329768 51.788215,18.1858277 51.0234461,18.4909571 C50.2581035,18.796659 49.5317739,19.2260156 48.8433098,19.7790269 C48.1548457,20.3326107 47.5237536,20.9909574 46.9500335,21.7540672 C46.3763134,22.5177495 45.9552028,23.3569985 45.6878493,24.2729592 L45.6878493,41.7907081 L38,41.7907081 L38,0 L45.6878493,0 L45.6878493,17.3460062 C46.7968502,15.3995897 48.2982757,13.9019939 50.191552,12.8520739 C52.0848283,11.8027264 54.1789067,11.2777664 56.473787,11.2777664 C58.4244353,11.2777664 60.0113451,11.6120921 61.2356638,12.2795985 C62.4594088,12.9476773 63.4158002,13.8350143 64.1042643,14.9416093 C64.7927284,16.0487769 65.2706372,17.3082228 65.5385645,18.7199473 C65.8059181,20.1322443 65.9401686,21.5823246 65.9401686,23.0707608 L65.9401686,41.7907081 Z" id="Fill-7"></path>
                            <path d="M94.6372679,23.9951928 C94.4456454,21.7436468 93.6137512,19.9403492 92.1415855,18.5852998 C90.668846,17.2313953 88.8805605,16.5530119 86.7773026,16.5530119 C85.7446064,16.5530119 84.7784618,16.7344866 83.8800161,17.0968636 C82.9809967,17.459813 82.1875418,17.9653088 81.4990777,18.6139235 C80.8106136,19.2631107 80.246073,20.0451122 79.8066034,20.9610729 C79.3665601,21.8770336 79.1083861,22.8885977 79.0320813,23.9951928 L94.6372679,23.9951928 Z M86.8346746,42.0854171 C84.4250502,42.0854171 82.2449138,41.6749522 80.2942655,40.8545949 C78.3436172,40.0342376 76.6798289,38.9179104 75.3029007,37.5056135 C73.9259725,36.093889 72.8645903,34.4526019 72.1187542,32.5823246 C71.3729181,30.7126198 71,28.746739 71,26.6858274 C71,24.5487765 71.3631648,22.5353804 72.0900682,20.6462114 C72.8163978,18.7570424 73.8686005,17.0968636 75.2455287,15.6656749 C76.6224569,14.2344863 78.2954247,13.0992675 80.2655795,12.259446 C82.2351606,11.4207695 84.443983,11 86.8920466,11 C89.3395365,11 91.5294261,11.4207695 93.4611417,12.259446 C95.3922835,13.0992675 97.037139,14.2258992 98.3951345,15.6370512 C99.7525562,17.0493481 100.785252,18.6906352 101.493223,20.5603401 C102.20062,22.4306174 102.554605,24.3770339 102.554605,26.3995897 C102.554605,26.8959259 102.544852,27.372798 102.525919,27.8307783 C102.506413,28.2887587 102.458794,28.6705998 102.382489,28.9757292 L79.1468253,28.9757292 C79.2615694,30.159036 79.5484294,31.2083835 80.0074055,32.1243442 C80.4663816,33.0403049 81.0590344,33.8228789 81.7859378,34.4714936 C82.5122674,35.1212532 83.334982,35.6164445 84.2529342,35.9599298 C85.1708863,36.303415 86.126704,36.4751577 87.1215346,36.4751577 C88.6510724,36.4751577 90.0951259,36.1030486 91.4531214,35.3588305 C92.8105431,34.6146124 93.7382485,33.6322446 94.2356638,32.4105819 L100.833445,34.2425034 C99.7238702,36.5324052 97.9550912,38.4129871 95.526534,39.8813866 C93.0974031,41.3509311 90.2001167,42.0854171 86.8346746,42.0854171 L86.8346746,42.0854171 Z" id="Fill-9"></path>
                        </g>
                    </g>
                    <polygon id="Fill-3" fill="#FFFFFF" opacity="0.1" mask="url(#mask-3)" points="277 0 70.9273356 0 238.6609 168 277 168"></polygon>
                    <polygon id="Stroke-11" stroke="#1C1C1C" stroke-width="0.96" mask="url(#mask-3)" points="11.5017301 156.48 237.702422 156.48 237.702422 11.52 11.5017301 11.52"></polygon>
                    <path d="M263.581315,84 C263.581315,87.97632 260.362747,91.2 256.392734,91.2 C252.42272,91.2 249.204152,87.97632 249.204152,84 C249.204152,80.02368 252.42272,76.8 256.392734,76.8 C260.362747,76.8 263.581315,80.02368 263.581315,84" id="Fill-13" fill="#1C1C1C" mask="url(#mask-3)"></path>
                </g>
            </g>
        </g>
    </g>
</svg>